<svg xmlns="http://www.w3.org/2000/svg" width="33.845" height="22" viewBox="0 0 33.845 22">
  <g id="aus" transform="translate(-1022.51 -11116.19)">
    <rect id="aus-2" data-name="aus" width="33.845" height="21.999" transform="translate(1022.51 11116.191)" fill="#009"/>
    <path id="Path_23" data-name="Path 23" d="M236.641,205.827l1.118-1.65-1.861.714-.608-1.908-.6,1.9-1.843-.684,1.1,1.632-1.716.985L234.2,207l-.265,1.946,1.36-1.422,1.362,1.428-.276-1.958,2.007-.158Z" transform="translate(795.808 10925.514)" fill="#fff"/>
    <path id="Path_24" data-name="Path 24" d="M255.942,207.72l.51-.753-.849.325-.278-.869-.274.867-.841-.312.5.745-.783.449.9.082-.121.888.62-.649.622.652-.125-.893.915-.072Z" transform="translate(793.084 10925.385)" fill="#fff"/>
    <path id="Path_25" data-name="Path 25" d="M250.731,199.531l.51-.753-.849.325-.277-.87-.275.868-.841-.312.5.745-.783.449.9.082-.121.888.62-.649.622.651-.125-.892.915-.073Z" transform="translate(793.759 10926.488)" fill="#fff"/>
    <path id="Path_26" data-name="Path 26" d="M260.583,198.138l.51-.753-.849.325-.277-.87-.275.868-.841-.312.5.744-.783.45.9.082-.121.888.621-.649.621.651-.125-.893.915-.072Z" transform="translate(792.111 10926.676)" fill="#fff"/>
    <path id="Path_27" data-name="Path 27" d="M254.827,194.443l-.121.888.621-.649.621.651-.126-.893.916-.072-.8-.459.51-.753-.849.326-.277-.871-.275.868-.841-.312.5.744-.782.45Z" transform="translate(793.084 10927.246)" fill="#fff"/>
    <path id="Path_28" data-name="Path 28" d="M257.663,201.474l-.245-.5-.246.5-.549.08.4.387-.094.546.492-.257.49.257-.094-.546.4-.387Z" transform="translate(792.111 10926.207)" fill="#fff"/>
    <path id="Path_29" data-name="Path 29" d="M237,195.875h-.641v5H237V198.1l4.28,2.77h.7L237,197.625v-.917l6.426,4.167h1.587v-.354l-5.849-3.813h5.849v-.833H237Z" transform="translate(795.09 10926.691)" fill="#fff"/>
    <path id="Path_30" data-name="Path 30" d="M233.794,196.708v.917l-4.984,3.25h.705l4.279-2.771v2.771h.641v-5h-8.654v.833h5.849l-5.849,3.813v.354h1.587Z" transform="translate(796.729 10926.691)" fill="#fff"/>
    <path id="Path_31" data-name="Path 31" d="M236.359,193.375h8.654v-.833h-4.28l4.28-2.771v-.479l-4.984,3.25h-1.442l6.426-4.167H242.85L237,192.188v-3.813h-.641v5Z" transform="translate(795.09 10927.816)" fill="#fff"/>
    <path id="Path_32" data-name="Path 32" d="M234.436,193.375v-5h-.641v3.813l-5.85-3.813h-2.163l6.426,4.167h-1.442l-4.984-3.25v.479l4.28,2.771h-4.28v.833h8.654Z" transform="translate(796.729 10927.816)" fill="#fff"/>
    <path id="Path_33" data-name="Path 33" d="M237,197.624l4.984,3.25h1.442L237,196.707Z" transform="translate(795.112 10926.617)" fill="#cf142b"/>
    <path id="Path_34" data-name="Path 34" d="M233.794,188.375h-5.849l5.849,3.813Z" transform="translate(796.729 10927.816)" fill="#009"/>
    <path id="Path_35" data-name="Path 35" d="M232.208,192.541l-6.426-4.167v.917l4.984,3.25Z" transform="translate(796.729 10927.816)" fill="#cf142b"/>
    <path id="Path_36" data-name="Path 36" d="M225.782,189.771v2.771h4.28Z" transform="translate(796.729 10927.816)" fill="#009"/>
    <path id="Path_37" data-name="Path 37" d="M225.782,196.708v3.813l5.849-3.813Z" transform="translate(796.729 10926.637)" fill="#009"/>
    <path id="Path_38" data-name="Path 38" d="M233.794,196.708l-6.426,4.167h1.442l4.984-3.25Z" transform="translate(796.729 10926.617)" fill="#cf142b"/>
    <path id="Path_39" data-name="Path 39" d="M242.849,188.375H237v3.813Z" transform="translate(795.141 10927.816)" fill="#009"/>
    <path id="Path_40" data-name="Path 40" d="M240.029,192.541l4.984-3.25v-.917l-6.426,4.167Z" transform="translate(794.883 10927.816)" fill="#cf142b"/>
    <path id="Path_41" data-name="Path 41" d="M234.436,200.874h1.923v-5h8.654v-2.5h-8.654v-5h-1.923v5h-8.654v2.5h8.654Z" transform="translate(796.729 10927.816)" fill="#cf142b"/>
  </g>
</svg>
