<svg xmlns="http://www.w3.org/2000/svg" width="60.526" height="50" viewBox="0 0 60.526 50">
  <path id="coma_1" d="M0,50V37.474A45.944,45.944,0,0,1,2.038,24.327,55.533,55.533,0,0,1,8.152,11.077,45.262,45.262,0,0,1,17.73,0l10.7,7.557a60.108,60.108,0,0,0-7.235,14.079,45.911,45.911,0,0,0-2.547,15.528V50Zm32.1,0V37.474a45.944,45.944,0,0,1,2.038-13.147,55.533,55.533,0,0,1,6.114-13.251A45.262,45.262,0,0,1,49.827,0l10.7,7.557a60.108,60.108,0,0,0-7.235,14.079,45.911,45.911,0,0,0-2.547,15.528V50Z" transform="translate(60.526 50) rotate(180)"/>
</svg>
