<svg xmlns="http://www.w3.org/2000/svg" width="25.828" height="16.635" viewBox="0 0 25.828 16.635">
  <path id="envelope" d="M168.5,55.552H145.712a1.521,1.521,0,0,0-1.516,1.44l12.142,9.177a1.263,1.263,0,0,0,.77.263,1.282,1.282,0,0,0,.771-.263l12.139-9.177a1.521,1.521,0,0,0-1.518-1.44m1.521,13.528-6.892-5.21,6.892-5.21Zm-.447,2.663a1.513,1.513,0,0,1-1.073.444H145.712a1.521,1.521,0,0,1-1.516-1.441l7.993-6.041,3.751,2.837a1.921,1.921,0,0,0,2.334,0l3.751-2.837,7.993,6.041a1.516,1.516,0,0,1-.444,1M144.193,58.659l6.892,5.21-6.892,5.21Z" transform="translate(-144.193 -55.552)" fill="#24984E" fill-rule="evenodd"/>
</svg>
