<svg xmlns="http://www.w3.org/2000/svg" width="17.952" height="20.158" viewBox="0 0 17.952 20.158">
  <g id="feature-img-1" transform="translate(-3951.302 -1820.144)">
    <path id="Path_32897" data-name="Path 32897" d="M3951.5,1840.3a.435.435,0,0,1-.2-.417c.006-.931-.006-1.863,0-2.794a3.1,3.1,0,0,1,1.959-3c1.2-.538,2.411-1.054,3.621-1.573a.236.236,0,0,0,.17-.261c-.009-.439,0-.879-.007-1.318a.342.342,0,0,0-.091-.218,3.794,3.794,0,0,1-1.2-2.834c0-.058-.005-.116-.009-.2-.119,0-.229,0-.338,0a.811.811,0,0,1-.853-.852c0-.341,0-.682,0-1.023a.765.765,0,0,1,.463-.719.2.2,0,0,0,.136-.221,5.028,5.028,0,0,1,.209-1.767,4.421,4.421,0,0,1,8.232-.288,4.743,4.743,0,0,1,.316,1.984.282.282,0,0,0,.179.318.739.739,0,0,1,.423.683c.012.36.01.722,0,1.082a.806.806,0,0,1-.768.8c-.142.01-.285,0-.4,0-.049.41-.066.791-.146,1.159a3.7,3.7,0,0,1-1.053,1.854.46.46,0,0,0-.122.284c-.013.413,0,.827-.01,1.239a.258.258,0,0,0,.188.289c1.206.509,2.409,1.028,3.613,1.543a3.108,3.108,0,0,1,1.562,1.405.217.217,0,0,0,.231.128c.236-.006.472,0,.708,0a.856.856,0,0,1,.924.919c0,.912-.015,1.823.006,2.735a.974.974,0,0,1-.673,1.066h-5.2a1,1,0,0,1-.656-1.1c.025-.891,0-1.783.008-2.675a.858.858,0,0,1,.954-.946h3.083a2.555,2.555,0,0,0-1.175-.985l-1.913-.821c-.173-.074-.346-.146-.526-.222-.047.075-.087.134-.123.2l-1.341,2.29c-.285.487-.369.5-.791.124l-.9-.8c.011.071.015.1.02.121q.416,2.151.835,4.3a.446.446,0,0,1-.149.521h-.236a1.341,1.341,0,0,1-.181-.33c-.1-.427-.17-.86-.253-1.29q-.24-1.241-.48-2.481a.45.45,0,0,0-.072.184c-.231,1.188-.457,2.377-.7,3.563a1.3,1.3,0,0,1-.206.354h-.2a.369.369,0,0,1-.183-.414c.232-1.169.458-2.34.684-3.51.062-.319.12-.638.188-1.007-.09.075-.14.114-.187.156-.294.262-.584.528-.881.786a.3.3,0,0,1-.508-.078c-.24-.4-.475-.8-.7-1.206a.331.331,0,0,1-.04-.256c.043-.088.149-.2.23-.2a.41.41,0,0,1,.3.155c.2.3.372.614.561.935l1.211-1.086a.314.314,0,0,0-.041-.058q-.91-.7-1.823-1.405a.156.156,0,0,0-.12-.038c-.2.079-.39.168-.592.257.093.16.175.294.25.432a.3.3,0,0,1-.094.441.293.293,0,0,1-.414-.143c-.1-.16-.193-.325-.293-.5-.816.355-1.621.7-2.423,1.056a2.53,2.53,0,0,0-1.617,2.47q-.011,1.4,0,2.794a.418.418,0,0,1-.2.412Zm4.292-15.341c.015-.054.03-.108.045-.162a1.921,1.921,0,0,1,2.782-1.174,2.015,2.015,0,0,0,1.957.063.283.283,0,0,1,.4.129.3.3,0,0,1-.149.4,2.471,2.471,0,0,1-1.345.287,4.047,4.047,0,0,1-1.283-.413,1.28,1.28,0,0,0-1.814,1.077,28.939,28.939,0,0,0,0,3.125,3.176,3.176,0,0,0,6.335-.374c0-.872,0-1.744,0-2.616a1.292,1.292,0,0,0-.891-1.318c-.209-.086-.288-.221-.227-.39a.3.3,0,0,1,.438-.16,1.887,1.887,0,0,1,1.225,1.357c.011.045.028.088.058.183a3.783,3.783,0,0,0-3.933-4.24A3.73,3.73,0,0,0,3955.792,1824.962Zm10.189,14.75h2.322c.269,0,.355-.083.355-.349q0-1.417,0-2.834c0-.267-.086-.355-.352-.355h-4.624c-.272,0-.353.08-.354.352q0,1.417,0,2.834c0,.276.078.353.35.353Zm-8.312-8.462c0,.469,0,.919,0,1.369a.241.241,0,0,0,.076.168c.592.464,1.189.922,1.793,1.387.6-.464,1.2-.921,1.792-1.386a.3.3,0,0,0,.084-.205c.013-.308.014-.615.018-.923,0-.132,0-.265,0-.419A3.842,3.842,0,0,1,3957.669,1831.25Zm4.938,2.068c-.169-.074-.327-.136-.478-.211a.232.232,0,0,0-.282.034c-.573.448-1.151.89-1.727,1.335-.035.027-.065.06-.106.1l1.219,1.092Zm.718-6.228c.141,0,.271.008.4,0a.217.217,0,0,0,.209-.24c0-.334,0-.669,0-1a.224.224,0,0,0-.207-.245,3.624,3.624,0,0,0-.4,0Zm-7.562-.009c0-.44,0-.869,0-1.3,0-.057-.007-.114-.012-.192-.1,0-.19,0-.28,0-.243,0-.315.075-.318.315,0,.222,0,.444,0,.667C3955.147,1827.024,3955.091,1827.138,3955.763,1827.081Z" transform="translate(0 0)" fill="#24984E"/>
    <path id="Path_32898" data-name="Path 32898" d="M4011.729,2156.383a.5.5,0,0,1-.178-.448c.007-.576,0-1.153,0-1.729a1.518,1.518,0,0,1,.006-.177.289.289,0,0,1,.576,0,2.684,2.684,0,0,1,.007.294c0,.537,0,1.074,0,1.612a.5.5,0,0,1-.181.446Z" transform="translate(-57.08 -316.08)" fill="#24984E"/>
    <path id="Path_32899" data-name="Path 32899" d="M4240.614,2136.183c.137.158.271.309.4.463s.146.331.012.452a.294.294,0,0,1-.447-.056c-.162-.176-.317-.358-.512-.578,0,.168,0,.283,0,.4a.3.3,0,0,1-.305.315.3.3,0,0,1-.282-.316q-.005-.962,0-1.925a.276.276,0,0,1,.274-.3,3.766,3.766,0,0,1,.647.005.8.8,0,0,1,.712.66.79.79,0,0,1-.4.826Zm-.535-.491a2.714,2.714,0,0,0,.415-.161c.03-.017.03-.158,0-.207-.1-.144-.258-.113-.41-.092Z" transform="translate(-273.023 -297.942)" fill="#24984E"/>
    <path id="Path_32900" data-name="Path 32900" d="M4191.629,2135.687h.774c0-.2,0-.4,0-.592,0-.211.121-.345.295-.342a.3.3,0,0,1,.292.33q.007.943,0,1.887a.3.3,0,0,1-.293.33c-.174,0-.291-.131-.294-.343s0-.43,0-.657h-.77c0,.2,0,.41,0,.617,0,.245-.11.385-.294.383s-.294-.144-.295-.388q0-.884,0-1.769a.652.652,0,0,1,.02-.175.269.269,0,0,1,.293-.211.263.263,0,0,1,.27.26C4191.637,2135.232,4191.629,2135.448,4191.629,2135.687Z" transform="translate(-227.134 -298.067)" fill="#24984E"/>
  </g>
</svg>
