<svg id="footer_logo" xmlns="http://www.w3.org/2000/svg" xmlns:xlink="http://www.w3.org/1999/xlink" width="311.478" height="51.6" viewBox="0 0 311.478 51.6">
  <defs>
    <linearGradient id="linear-gradient" y1="0.5" x2="2.335" y2="0.5" gradientUnits="objectBoundingBox">
      <stop offset="0" stop-color="#33994b"/>
      <stop offset="0.34" stop-color="#6fb64d"/>
      <stop offset="1" stop-color="#a3c851"/>
    </linearGradient>
    <linearGradient id="linear-gradient-2" x1="-1" y1="0.5" x2="1.001" y2="0.5" xlink:href="#linear-gradient"/>
    <linearGradient id="linear-gradient-3" x1="-3.418" y1="0.502" x2="5.42" y2="0.502" xlink:href="#linear-gradient"/>
    <linearGradient id="linear-gradient-4" x1="-2.644" y1="0.498" x2="2.645" y2="0.498" xlink:href="#linear-gradient"/>
    <linearGradient id="linear-gradient-5" x1="-191.031" y1="1.292" x2="-191.031" y2="0.001" gradientUnits="objectBoundingBox">
      <stop offset="0" stop-color="#026839"/>
      <stop offset="0.38" stop-color="#33994b"/>
      <stop offset="1" stop-color="#6fb64d"/>
    </linearGradient>
    <linearGradient id="linear-gradient-6" x1="-1041.326" y1="11.916" x2="-1041.326" y2="-6.105" xlink:href="#linear-gradient-5"/>
    <linearGradient id="linear-gradient-7" x1="-233.276" y1="1.577" x2="-233.276" y2="0.001" xlink:href="#linear-gradient-5"/>
    <linearGradient id="linear-gradient-8" x1="0" y1="0.5" x2="2.001" y2="0.5" xlink:href="#linear-gradient"/>
    <linearGradient id="linear-gradient-9" x1="-147.902" y1="1" x2="-147.902" y2="0.001" xlink:href="#linear-gradient-5"/>
    <linearGradient id="linear-gradient-10" x1="-2.34" y1="0.474" x2="7.731" y2="0.474" gradientUnits="objectBoundingBox">
      <stop offset="0" stop-color="#006537"/>
      <stop offset="0.33" stop-color="#008a40"/>
      <stop offset="0.66" stop-color="#36ac47"/>
      <stop offset="1" stop-color="#9ac341"/>
    </linearGradient>
    <linearGradient id="linear-gradient-11" x1="-4.199" y1="0.298" x2="8.372" y2="0.298" xlink:href="#linear-gradient-10"/>
    <linearGradient id="linear-gradient-12" x1="-6.345" y1="0.303" x2="8.912" y2="0.303" xlink:href="#linear-gradient-10"/>
    <linearGradient id="linear-gradient-13" x1="-9.008" y1="0.425" x2="9.679" y2="0.425" xlink:href="#linear-gradient-10"/>
    <linearGradient id="linear-gradient-14" x1="-11.53" y1="0.496" x2="10.102" y2="0.496" xlink:href="#linear-gradient-10"/>
    <linearGradient id="linear-gradient-15" x1="-8.914" y1="0.507" x2="6.417" y2="0.507" xlink:href="#linear-gradient-10"/>
    <linearGradient id="linear-gradient-16" x1="-13.844" y1="0.496" x2="7.937" y2="0.496" xlink:href="#linear-gradient-10"/>
    <linearGradient id="linear-gradient-17" x1="-8.871" y1="0.292" x2="4.121" y2="0.292" xlink:href="#linear-gradient-10"/>
    <linearGradient id="linear-gradient-18" x1="-9.633" y1="0.298" x2="3.015" y2="0.298" xlink:href="#linear-gradient-10"/>
    <linearGradient id="linear-gradient-19" x1="-15.907" y1="0.425" x2="2.78" y2="0.425" xlink:href="#linear-gradient-10"/>
    <linearGradient id="linear-gradient-20" x1="-11.384" y1="0.298" x2="1.188" y2="0.298" xlink:href="#linear-gradient-10"/>
    <linearGradient id="linear-gradient-21" x1="-12.481" y1="0.297" x2="0.151" y2="0.297" xlink:href="#linear-gradient-10"/>
  </defs>
  <g id="Group_80799" data-name="Group 80799">
    <path id="Path_31233" data-name="Path 31233" d="M43.13,12.024,23.839.889,22.323,0,20.807.889,1.516,12.024,0,12.913V38.686l1.516.889L20.755,50.711l1.516.889,1.516-.889L43.026,39.575l1.516-.889V12.861Zm.366,3.189V37.955l-1.464.836L23.787,49.351l-1.464.836-1.464-.836L2.614,38.843,1.15,38.007V13.54L2.614,12.7,20.859,2.2l1.464-.836,1.464.836,18.245,10.56,1.464.836v1.621Z" fill="#fff"/>
    <path id="Path_31234" data-name="Path 31234" d="M7.8,32.8V51.307l9.881-5.751Z" transform="translate(-3.722 -15.652)"/>
    <path id="Path_31235" data-name="Path 31235" d="M68.581,51.307V32.8L58.7,45.556Z" transform="translate(-28.012 -15.652)"/>
    <path id="Path_31236" data-name="Path 31236" d="M44.166,67.678,43.8,68.1v6.587L60.9,64.8,50.858,59Z" transform="translate(-20.902 -28.155)"/>
    <path id="Path_31237" data-name="Path 31237" d="M7.8,29.1Z" transform="translate(-3.722 -13.887)"/>
    <path id="Path_31238" data-name="Path 31238" d="M29.9,57.7l.1.1,6.587,8.521-4.13-5.332Z" transform="translate(-14.269 -27.535)"/>
    <path id="Path_31239" data-name="Path 31239" d="M18.938,59,8.9,64.8,26,74.684V68.1l-.366-.418Z" transform="translate(-4.247 -28.155)"/>
    <path id="Path_31240" data-name="Path 31240" d="M24.837,3.436,23.373,2.6l-1.464.836L3.664,13.945,2.2,14.781V39.2l1.464.889,18.245,10.56,1.464.836,1.464-.836,18.245-10.56,1.464-.836V14.781l-1.464-.836ZM42.769,16.454V38.2l-.575.314L23.948,49.076l-.575.314-.575-.314L4.553,38.568l-.575-.314V15.774l.575-.314L22.8,4.953l.575-.314.575.314,18.245,10.56.575.314v.627Z" transform="translate(-1.05 -1.241)"/>
    <path id="Path_31241" data-name="Path 31241" d="M56.318,43.215,67.245,29.1,55.9,43.79Z" transform="translate(-26.676 -13.887)"/>
    <path id="Path_31242" data-name="Path 31242" d="M44.186,18.828,27.143,9,10.1,18.828l17.043,8.678Z" transform="translate(-4.82 -4.295)"/>
    <path id="Path_31243" data-name="Path 31243" d="M25.571,6.814,25,6.5l-.575.314L6.175,17.322l-.575.314V40.063l.575.314L24.42,50.937l.575.314.575-.314,18.245-10.56.575-.314V17.635l-.575-.314ZM25,7.807l17.043,9.828L25,26.314,7.953,17.635ZM24.42,49.63l-17.1-9.881,10.038-5.8,6.692,8.678.314.418V49.63ZM6.75,38.756V20.249l9.881,12.808ZM25.571,49.63V43.043l.314-.418,6.744-8.678,10.038,5.8Zm17.67-10.874L33.36,33.005,43.241,20.2ZM32.315,32.43l-.418.575L25,41.893h0l-6.587-8.521-.052-.1L6.75,18.315h0l15.631,7.946L25,27.621l18.245-9.306Z" transform="translate(-2.672 -3.102)" fill="#fff"/>
    <path id="Path_31244" data-name="Path 31244" d="M23.431,37.1,7.8,29.1h0Z" transform="translate(-3.722 -13.887)"/>
    <path id="Path_31245" data-name="Path 31245" d="M23.431,37.1,7.8,29.1h0Z" transform="translate(-3.722 -13.887)" fill="url(#linear-gradient)"/>
    <path id="Path_31246" data-name="Path 31246" d="M42.7,38.406V52.678l6.587-8.521.314-.366L60.945,29.1Z" transform="translate(-20.377 -13.887)"/>
    <path id="Path_31247" data-name="Path 31247" d="M42.7,38.406V52.678l6.587-8.521.314-.366L60.945,29.1Z" transform="translate(-20.377 -13.887)" fill="url(#linear-gradient-2)"/>
    <path id="Path_31248" data-name="Path 31248" d="M34.8,64l4.13,5.332h0Z" transform="translate(-16.607 -30.541)"/>
    <path id="Path_31249" data-name="Path 31249" d="M34.8,64l4.13,5.332h0Z" transform="translate(-16.607 -30.541)" fill="url(#linear-gradient-3)"/>
    <path id="Path_31250" data-name="Path 31250" d="M42.7,74.2Z" transform="translate(-20.377 -35.409)" fill="#fff"/>
    <path id="Path_31251" data-name="Path 31251" d="M42.7,74.2Z" transform="translate(-20.377 -35.409)" fill="#fff"/>
    <path id="Path_31252" data-name="Path 31252" d="M42.7,66.087h0L49.6,57.2l-.314.366Z" transform="translate(-20.377 -27.296)" fill="#fff"/>
    <path id="Path_31253" data-name="Path 31253" d="M42.7,66.087h0L49.6,57.2l-.314.366Z" transform="translate(-20.377 -27.296)" fill="url(#linear-gradient-4)"/>
    <path id="Path_31254" data-name="Path 31254" d="M7.8,29.1h0L18.726,43.215l.627.836,2.562,3.294Z" transform="translate(-3.722 -13.887)"/>
    <path id="Path_31255" data-name="Path 31255" d="M7.8,29.1h0L18.726,43.215l.627.836,2.562,3.294Z" transform="translate(-3.722 -13.887)" fill="url(#linear-gradient-5)"/>
    <path id="Path_31256" data-name="Path 31256" d="M40.314,45.707,37.7,44.4Z" transform="translate(-17.991 -21.188)" fill="#fff"/>
    <path id="Path_31257" data-name="Path 31257" d="M40.314,45.707,37.7,44.4Z" transform="translate(-17.991 -21.188)" fill="url(#linear-gradient-6)"/>
    <path id="Path_31258" data-name="Path 31258" d="M7.8,29.1h0L19.354,44.052l-.627-.836Z" transform="translate(-3.722 -13.887)" fill="#fff"/>
    <path id="Path_31259" data-name="Path 31259" d="M7.8,29.1h0L19.354,44.052l-.627-.836Z" transform="translate(-3.722 -13.887)" fill="url(#linear-gradient-7)"/>
    <path id="Path_31260" data-name="Path 31260" d="M42.7,74.2Z" transform="translate(-20.377 -35.409)" fill="#fff"/>
    <path id="Path_31261" data-name="Path 31261" d="M42.7,74.2Z" transform="translate(-20.377 -35.409)" fill="#fff"/>
    <path id="Path_31262" data-name="Path 31262" d="M21.915,47.345l4.13,5.332h0V38.406h0L23.431,37.1,7.8,29.1Z" transform="translate(-3.722 -13.887)"/>
    <path id="Path_31263" data-name="Path 31263" d="M21.915,47.345l4.13,5.332h0V38.406h0L23.431,37.1,7.8,29.1Z" transform="translate(-3.722 -13.887)" fill="url(#linear-gradient-8)"/>
    <path id="Path_31264" data-name="Path 31264" d="M21.915,47.345l4.13,5.332h0V38.406h0L23.431,37.1,7.8,29.1Z" transform="translate(-3.722 -13.887)" fill="url(#linear-gradient-9)"/>
    <rect id="Rectangle_22345" data-name="Rectangle 22345" transform="translate(22.323 38.791)" fill="#fff"/>
    <rect id="Rectangle_22346" data-name="Rectangle 22346" transform="translate(22.323 38.791)" fill="#fff"/>
    <rect id="Rectangle_22347" data-name="Rectangle 22347" transform="translate(22.323 38.791)" fill="#fff"/>
  </g>
  <g id="Group_80807" data-name="Group 80807" transform="translate(47.731 16.311)">
    <g id="Group_80800" data-name="Group 80800" transform="translate(19.605 0.523)">
      <path id="Path_31265" data-name="Path 31265" d="M133.923,43.179h6.953V39.205h-6.953V36.33h7.319V32.2H128.8V50.445h12.913v-4.13h-7.79Z" transform="translate(-128.8 -32.2)" fill="#fff"/>
    </g>
    <g id="Group_80801" data-name="Group 80801" transform="translate(34.975 0.471)">
      <path id="Path_31266" data-name="Path 31266" d="M171.793,41.04a5.753,5.753,0,0,0,.836-3.241,5.92,5.92,0,0,0-.523-2.666,5.006,5.006,0,0,0-1.516-1.777,5.841,5.841,0,0,0-2.248-.941,11.525,11.525,0,0,0-2.771-.314H158.2V50.4h5.123V43.915h1.2l3.4,6.483h5.751l-4.287-7.476A4.828,4.828,0,0,0,171.793,41.04ZM167.244,39a2.092,2.092,0,0,1-.523.627,1.833,1.833,0,0,1-.732.314,4.576,4.576,0,0,1-.836.1h-1.725V36.282h1.725a3.227,3.227,0,0,1,1.621.366,1.327,1.327,0,0,1,.68,1.359A1.99,1.99,0,0,1,167.244,39Z" transform="translate(-158.2 -32.1)" fill="#fff"/>
    </g>
    <g id="Group_80802" data-name="Group 80802" transform="translate(51.547 0.523)">
      <rect id="Rectangle_22348" data-name="Rectangle 22348" width="5.228" height="18.298" fill="#fff"/>
    </g>
    <g id="Group_80803" data-name="Group 80803" transform="translate(59.128 0.471)">
      <path id="Path_31267" data-name="Path 31267" d="M218.254,34.087a8.808,8.808,0,0,0-3.241-1.516A15.265,15.265,0,0,0,211.2,32.1h-6.8V50.4h6.953a12.843,12.843,0,0,0,3.764-.523,9.114,9.114,0,0,0,3.241-1.673,8.233,8.233,0,0,0,2.248-2.875,9.1,9.1,0,0,0,.836-4.13,9.734,9.734,0,0,0-.836-4.339A10.175,10.175,0,0,0,218.254,34.087Zm-2.771,9.41a3.675,3.675,0,0,1-1.1,1.516,4.348,4.348,0,0,1-1.621.836,7.848,7.848,0,0,1-1.934.261h-1.307V36.387h1.412a7.848,7.848,0,0,1,1.934.261,4.428,4.428,0,0,1,1.568.784,3.9,3.9,0,0,1,1.046,1.464,5.9,5.9,0,0,1,.366,2.3A6.07,6.07,0,0,1,215.483,43.5Z" transform="translate(-204.4 -32.1)" fill="#fff"/>
    </g>
    <g id="Group_80804" data-name="Group 80804" transform="translate(0 0.471)">
      <path id="Path_31268" data-name="Path 31268" d="M100.606,43.288,96.528,32.1H91.3l6.639,18.35h5.228l6.744-18.35h-5.228Z" transform="translate(-91.3 -32.1)" fill="#fff"/>
    </g>
    <g id="Group_80805" data-name="Group 80805" transform="translate(77.634 0.052)">
      <path id="Path_31269" data-name="Path 31269" d="M249.419,31.3a9.619,9.619,0,1,0,9.619,9.619A9.594,9.594,0,0,0,249.419,31.3Zm0,14.272a4.705,4.705,0,1,1,4.705-4.705A4.686,4.686,0,0,1,249.419,45.572Z" transform="translate(-239.8 -31.3)" fill="#fff"/>
    </g>
    <g id="Group_80806" data-name="Group 80806" transform="translate(98.285)">
      <path id="Path_31270" data-name="Path 31270" d="M288.919,45.524a4.705,4.705,0,1,1,0-9.41,4.765,4.765,0,0,1,4.339,2.771l4.705-1.255a9.567,9.567,0,1,0,0,6.483l-4.757-1.255A4.743,4.743,0,0,1,288.919,45.524Z" transform="translate(-279.3 -31.2)" fill="#fff"/>
    </g>
  </g>
  <g id="Group_80809" data-name="Group 80809" transform="translate(173.64 15.004)">
    <g id="Group_80808" data-name="Group 80808">
      <path id="Path_31271" data-name="Path 31271" d="M347.123,43.665a6.989,6.989,0,0,1-1.307,3.555,7.675,7.675,0,0,1-3.032,2.4,8.8,8.8,0,0,1-4.026.784,6.288,6.288,0,0,1-4.705-1.934,7.775,7.775,0,0,1-1.882-5.071,14.819,14.819,0,0,1,.47-4.653,12.841,12.841,0,0,1,1.882-4.391,8.732,8.732,0,0,1,3.137-2.771,8.31,8.31,0,0,1,3.921-.889,7.093,7.093,0,0,1,4.967,1.882,7.332,7.332,0,0,1,1.987,5.019h-4.5a4.02,4.02,0,0,0-.627-2.509,2.573,2.573,0,0,0-2.091-.784c-2.353-.1-3.816,1.777-4.339,5.542a26.076,26.076,0,0,0-.366,3.66c-.052,2.143.732,3.241,2.4,3.346a3.309,3.309,0,0,0,2.509-.784,3.926,3.926,0,0,0,1.2-2.353Z" transform="translate(-332.14 -29.654)" fill="url(#linear-gradient-10)"/>
      <path id="Path_31272" data-name="Path 31272" d="M370.55,54.94a6.719,6.719,0,0,1-3.4-.889,5.685,5.685,0,0,1-2.248-2.457,6.479,6.479,0,0,1-.627-3.5l.052-.366a8.673,8.673,0,0,1,2.457-5.542,6.812,6.812,0,0,1,5.123-1.987,5.3,5.3,0,0,1,3.137.941,4.616,4.616,0,0,1,1.882,2.509,7.858,7.858,0,0,1,.418,3.555l-.261,1.777h-8.469a2.682,2.682,0,0,0,.627,1.83,2.244,2.244,0,0,0,1.777.732,4.563,4.563,0,0,0,3.4-1.464l1.83,2.4A4.832,4.832,0,0,1,374,54.26a7.658,7.658,0,0,1-3.137.68ZM371.6,43.648a2.291,2.291,0,0,0-1.621.575,4.428,4.428,0,0,0-1.15,1.987h4.339l.1-.366a4.784,4.784,0,0,0,.052-.836A1.613,1.613,0,0,0,371.6,43.648Z" transform="translate(-347.463 -34.185)" fill="url(#linear-gradient-11)"/>
      <path id="Path_31273" data-name="Path 31273" d="M400.4,44.487c-.471-.052-.889-.1-1.359-.157a3.286,3.286,0,0,0-2.98,1.359l-1.621,8.992H390.1l2.457-14.22h4.026l-.314,1.882a4.024,4.024,0,0,1,3.294-2.143,5.059,5.059,0,0,1,1.359.209Z" transform="translate(-359.799 -34.188)" fill="url(#linear-gradient-12)"/>
      <path id="Path_31274" data-name="Path 31274" d="M418.214,33.952l-.627,3.555h2.248l-.523,3.084h-2.248l-1.1,6.535a1.415,1.415,0,0,0,.1.993.955.955,0,0,0,.889.366c.209,0,.575,0,1.15-.052l-.314,3.189a5.711,5.711,0,0,1-2.3.314,3.784,3.784,0,0,1-3.032-1.2,4.086,4.086,0,0,1-.836-3.137l1.15-7.058H411l.523-3.084H413.3l.627-3.555h4.287Z" transform="translate(-369.773 -31.181)" fill="url(#linear-gradient-13)"/>
      <path id="Path_31275" data-name="Path 31275" d="M431.439,49.623H427.1l2.457-14.22H433.9Zm-1.464-17.775a2.174,2.174,0,0,1,.68-1.621,2.7,2.7,0,0,1,3.4-.052,1.816,1.816,0,0,1,.68,1.516,2.1,2.1,0,0,1-.68,1.621,2.5,2.5,0,0,1-1.725.627,2.594,2.594,0,0,1-1.673-.575A1.973,1.973,0,0,1,429.975,31.848Z" transform="translate(-377.456 -29.129)" fill="url(#linear-gradient-14)"/>
      <path id="Path_31276" data-name="Path 31276" d="M442.452,49.193l1.934-11.135H442.4l.523-3.084h1.987l.157-1.255a5.724,5.724,0,0,1,1.83-3.607,6,6,0,0,1,4.13-1.412,12.132,12.132,0,0,1,2.143.314l-.314,3.294a4.226,4.226,0,0,0-1.046-.157,2.913,2.913,0,0,0-1.568.418,2.007,2.007,0,0,0-.784,1.255l-.209,1.15h2.666l-.523,3.084h-2.666l-1.934,11.135Z" transform="translate(-384.757 -28.7)" fill="url(#linear-gradient-15)"/>
      <path id="Path_31277" data-name="Path 31277" d="M463.839,49.623H459.5l2.457-14.22H466.3Zm-1.516-17.775a2.174,2.174,0,0,1,.68-1.621,2.7,2.7,0,0,1,3.4-.052,1.816,1.816,0,0,1,.68,1.516,2.1,2.1,0,0,1-.68,1.621,2.5,2.5,0,0,1-1.725.627A2.594,2.594,0,0,1,463,33.364,1.973,1.973,0,0,1,462.323,31.848Z" transform="translate(-392.917 -29.129)" fill="url(#linear-gradient-16)"/>
      <path id="Path_31278" data-name="Path 31278" d="M480.255,51.634a1.937,1.937,0,0,0,1.464-.523,2.566,2.566,0,0,0,.68-1.412h4.025a5.357,5.357,0,0,1-.941,2.823,5.583,5.583,0,0,1-2.3,1.934,6.177,6.177,0,0,1-3.084.627,5.517,5.517,0,0,1-4.391-2.039,6.837,6.837,0,0,1-1.255-5.123l.052-.314a9.921,9.921,0,0,1,1.2-3.816,6.7,6.7,0,0,1,2.562-2.562,6.3,6.3,0,0,1,3.555-.836,5.387,5.387,0,0,1,3.921,1.568,5.651,5.651,0,0,1,1.359,4.13h-4.025c.052-1.516-.471-2.248-1.621-2.3-1.516-.052-2.4,1.2-2.614,3.816l-.1,1.359v.523C478.739,50.85,479.262,51.582,480.255,51.634Z" transform="translate(-400.028 -34.277)" fill="url(#linear-gradient-17)"/>
      <path id="Path_31279" data-name="Path 31279" d="M507.242,54.674a4.554,4.554,0,0,1-.209-1.307,4.653,4.653,0,0,1-3.5,1.568,4.138,4.138,0,0,1-3.084-1.255,3.678,3.678,0,0,1-1.15-2.928A4.212,4.212,0,0,1,501.23,47.2a8.987,8.987,0,0,1,5.071-1.255l1.464.052.157-.784.052-.68a1.167,1.167,0,0,0-1.2-1.255,1.666,1.666,0,0,0-1.725,1.568h-4.339a4.357,4.357,0,0,1,.941-2.509A5.571,5.571,0,0,1,504,40.716a8.025,8.025,0,0,1,3.189-.523,6.608,6.608,0,0,1,2.823.68,4.289,4.289,0,0,1,1.83,1.777,4.362,4.362,0,0,1,.471,2.614l-1.046,6.692-.052.836a3.428,3.428,0,0,0,.261,1.673v.261h-4.235ZM504.785,51.8a2.707,2.707,0,0,0,2.3-1.15l.418-2.3h-1.1a2.638,2.638,0,0,0-1.777.627,2.3,2.3,0,0,0-.889,1.621,1.007,1.007,0,0,0,.209.889A1.1,1.1,0,0,0,504.785,51.8Z" transform="translate(-411.906 -34.181)" fill="url(#linear-gradient-18)"/>
      <path id="Path_31280" data-name="Path 31280" d="M534.815,33.952l-.627,3.555h2.248l-.523,3.084h-2.248l-1.1,6.535a1.415,1.415,0,0,0,.1.993.955.955,0,0,0,.889.366c.209,0,.575,0,1.15-.052l-.314,3.189a5.712,5.712,0,0,1-2.3.314,3.784,3.784,0,0,1-3.032-1.2,4.086,4.086,0,0,1-.836-3.137l1.15-7.058H527.6l.523-3.084H529.9l.627-3.555h4.287Z" transform="translate(-425.415 -31.181)" fill="url(#linear-gradient-19)"/>
      <path id="Path_31281" data-name="Path 31281" d="M551.05,54.94a6.719,6.719,0,0,1-3.4-.889,5.685,5.685,0,0,1-2.248-2.457,6.479,6.479,0,0,1-.627-3.5l.052-.366a8.673,8.673,0,0,1,2.457-5.542,6.812,6.812,0,0,1,5.123-1.987,5.3,5.3,0,0,1,3.137.941,4.616,4.616,0,0,1,1.882,2.509,7.86,7.86,0,0,1,.418,3.555l-.261,1.777h-8.469a2.682,2.682,0,0,0,.627,1.83,2.245,2.245,0,0,0,1.777.732,4.563,4.563,0,0,0,3.4-1.464l1.83,2.4A4.831,4.831,0,0,1,554.5,54.26a7.659,7.659,0,0,1-3.137.68ZM552.1,43.648a2.291,2.291,0,0,0-1.621.575,4.428,4.428,0,0,0-1.15,1.987h4.339l.1-.366a4.781,4.781,0,0,0,.052-.836A1.613,1.613,0,0,0,552.1,43.648Z" transform="translate(-433.6 -34.185)" fill="url(#linear-gradient-20)"/>
      <path id="Path_31282" data-name="Path 31282" d="M578.746,50.6c.1-.575-.314-.993-1.359-1.307l-.941-.261a7.417,7.417,0,0,1-3.346-1.673,3.2,3.2,0,0,1-.993-2.562,4.155,4.155,0,0,1,1.83-3.346,6.928,6.928,0,0,1,4.287-1.255,6.329,6.329,0,0,1,4.078,1.255A4.045,4.045,0,0,1,583.87,44.8h-4.287c.052-1.1-.471-1.673-1.464-1.673a2.034,2.034,0,0,0-1.2.366,1.759,1.759,0,0,0-.68,1.046c-.157.732.471,1.2,1.882,1.464a13.252,13.252,0,0,1,2.823.993,3.964,3.964,0,0,1,1.516,1.412,3.291,3.291,0,0,1,.47,2.039,3.766,3.766,0,0,1-.836,2.3,5.517,5.517,0,0,1-2.3,1.621,8.4,8.4,0,0,1-3.294.575,6.613,6.613,0,0,1-2.875-.627,4.757,4.757,0,0,1-2.039-1.725,5.075,5.075,0,0,1-.784-2.509h4.026a1.663,1.663,0,0,0,1.882,1.882,2.3,2.3,0,0,0,1.359-.366A1.263,1.263,0,0,0,578.746,50.6Z" transform="translate(-446.031 -34.188)" fill="url(#linear-gradient-21)"/>
    </g>
  </g>
</svg>
