<svg xmlns="http://www.w3.org/2000/svg" xmlns:xlink="http://www.w3.org/1999/xlink" style="shape-rendering: auto;" viewBox="0 0 100 120" preserveAspectRatio="xMidYMid">
    <g transform="rotate(0 50 50) translate(3 0)" >
        <path x="50" y="-0.5" rx="0" ry="0" id="Path_9" data-name="Path 9" d="M47.606,14.774V1.383A1.389,1.389,0,0,0,46.126,0,42.378,42.378,0,0,0,20.38,10.668a1.388,1.388,0,0,0-.068,2.02l9.469,9.469a1.372,1.372,0,0,0,1.853.087,26.313,26.313,0,0,1,14.727-6.1,1.371,1.371,0,0,0,1.245-1.371" fill="#24984E">
            <animate attributeName="opacity" values="1;0" keyTimes="0;1" dur="1s" begin="-0.875s" repeatCount="indefinite"/>
        </path>
    </g>
    <g transform="rotate(45 50 50) translate(-2.8 1)">
        <path x="15" y="-0.5" rx="0" ry="0" id="Path_9" data-name="Path 9" d="M47.606,14.774V1.383A1.389,1.389,0,0,0,46.126,0,42.378,42.378,0,0,0,20.38,10.668a1.388,1.388,0,0,0-.068,2.02l9.469,9.469a1.372,1.372,0,0,0,1.853.087,26.313,26.313,0,0,1,14.727-6.1,1.371,1.371,0,0,0,1.245-1.371" fill="#24984E">
            <animate attributeName="opacity" values="1;0" keyTimes="0;1" dur="1s" begin="-0.75s" repeatCount="indefinite"/>
        </path>
    </g>
    <g transform="rotate(90 50 50) translate(-6 5.8)">
        <path x="15" y="-0.5" rx="0" ry="0" id="Path_9" data-name="Path 9" d="M47.606,14.774V1.383A1.389,1.389,0,0,0,46.126,0,42.378,42.378,0,0,0,20.38,10.668a1.388,1.388,0,0,0-.068,2.02l9.469,9.469a1.372,1.372,0,0,0,1.853.087,26.313,26.313,0,0,1,14.727-6.1,1.371,1.371,0,0,0,1.245-1.371" fill="#24984E">
            <animate attributeName="opacity" values="1;0" keyTimes="0;1" dur="1s" begin="-0.625s" repeatCount="indefinite"/>
        </path>
    </g>
    <g transform="rotate(135 50 50)">
        <path x="15" y="-0.5" rx="0" ry="0" id="Path_9" data-name="Path 9" d="M47.606,14.774V1.383A1.389,1.389,0,0,0,46.126,0,42.378,42.378,0,0,0,20.38,10.668a1.388,1.388,0,0,0-.068,2.02l9.469,9.469a1.372,1.372,0,0,0,1.853.087,26.313,26.313,0,0,1,14.727-6.1,1.371,1.371,0,0,0,1.245-1.371" fill="#24984E" style="translate: -5px 12px;">
            <animate attributeName="opacity" values="1;0" keyTimes="0;1" dur="1s" begin="-0.5s" repeatCount="indefinite"/>
        </path>
    </g>
    <g transform="rotate(180 50 50) translate(0 15)">
        <path x="15" y="-0.5" rx="0" ry="0" id="Path_9" data-name="Path 9" d="M47.606,14.774V1.383A1.389,1.389,0,0,0,46.126,0,42.378,42.378,0,0,0,20.38,10.668a1.388,1.388,0,0,0-.068,2.02l9.469,9.469a1.372,1.372,0,0,0,1.853.087,26.313,26.313,0,0,1,14.727-6.1,1.371,1.371,0,0,0,1.245-1.371" fill="#24984E">
            <animate attributeName="opacity" values="1;0" keyTimes="0;1" dur="1s" begin="-0.375s" repeatCount="indefinite"/>
        </path>
    </g>
    <g transform="rotate(225 50 50) translate(6 14)">
        <path x="15" y="-0.5" rx="0" ry="0" id="Path_9" data-name="Path 9" d="M47.606,14.774V1.383A1.389,1.389,0,0,0,46.126,0,42.378,42.378,0,0,0,20.38,10.668a1.388,1.388,0,0,0-.068,2.02l9.469,9.469a1.372,1.372,0,0,0,1.853.087,26.313,26.313,0,0,1,14.727-6.1,1.371,1.371,0,0,0,1.245-1.371" fill="#24984E">
            <animate attributeName="opacity" values="1;0" keyTimes="0;1" dur="1s" begin="-0.25s" repeatCount="indefinite"/>
        </path>
    </g>
    <g transform="rotate(270 50 50) translate(9 9)">
        <path x="15" y="-0.5" rx="0" ry="0" id="Path_9" data-name="Path 9" d="M47.606,14.774V1.383A1.389,1.389,0,0,0,46.126,0,42.378,42.378,0,0,0,20.38,10.668a1.388,1.388,0,0,0-.068,2.02l9.469,9.469a1.372,1.372,0,0,0,1.853.087,26.313,26.313,0,0,1,14.727-6.1,1.371,1.371,0,0,0,1.245-1.371" fill="#24984E">
            <animate attributeName="opacity" values="1;0" keyTimes="0;1" dur="1s" begin="-0.125s" repeatCount="indefinite"/>
        </path>
    </g>
    <g transform="rotate(315 50 50) translate(8 4)">
        <path x="15" y="-0.5" rx="0" ry="0" id="Path_9" data-name="Path 9" d="M47.606,14.774V1.383A1.389,1.389,0,0,0,46.126,0,42.378,42.378,0,0,0,20.38,10.668a1.388,1.388,0,0,0-.068,2.02l9.469,9.469a1.372,1.372,0,0,0,1.853.087,26.313,26.313,0,0,1,14.727-6.1,1.371,1.371,0,0,0,1.245-1.371" fill="#24984E">
            <animate attributeName="opacity" values="1;0" keyTimes="0;1" dur="1s" begin="0s" repeatCount="indefinite"/>
        </path>
    </g>
    <!-- [ldio] generated by https://loading.io/ -->
</svg>