<svg id="logo_bnr" xmlns="http://www.w3.org/2000/svg" xmlns:xlink="http://www.w3.org/1999/xlink" width="387" height="64.11" viewBox="0 0 387 64.11">
  <defs>
    <linearGradient id="linear-gradient" y1="0.5" x2="2.335" y2="0.5" gradientUnits="objectBoundingBox">
      <stop offset="0" stop-color="#33994b"/>
      <stop offset="0.34" stop-color="#6fb64d"/>
      <stop offset="1" stop-color="#a3c851"/>
    </linearGradient>
    <linearGradient id="linear-gradient-2" x1="-1" y1="0.5" x2="1.001" y2="0.5" xlink:href="#linear-gradient"/>
    <linearGradient id="linear-gradient-3" x1="-3.418" y1="0.502" x2="5.42" y2="0.502" xlink:href="#linear-gradient"/>
    <linearGradient id="linear-gradient-4" x1="-2.644" y1="0.498" x2="2.645" y2="0.498" xlink:href="#linear-gradient"/>
    <linearGradient id="linear-gradient-5" x1="-191.031" y1="1.292" x2="-191.031" y2="0.001" gradientUnits="objectBoundingBox">
      <stop offset="0" stop-color="#026839"/>
      <stop offset="0.38" stop-color="#33994b"/>
      <stop offset="1" stop-color="#6fb64d"/>
    </linearGradient>
    <linearGradient id="linear-gradient-6" x1="-1041.326" y1="11.916" x2="-1041.326" y2="-6.105" xlink:href="#linear-gradient-5"/>
    <linearGradient id="linear-gradient-7" x1="-233.276" y1="1.577" x2="-233.276" y2="0.001" xlink:href="#linear-gradient-5"/>
    <linearGradient id="linear-gradient-8" x1="0" y1="0.5" x2="2.001" y2="0.5" xlink:href="#linear-gradient"/>
    <linearGradient id="linear-gradient-9" x1="-147.902" y1="1" x2="-147.902" y2="0.001" xlink:href="#linear-gradient-5"/>
    <linearGradient id="linear-gradient-10" x1="-2.34" y1="0.474" x2="7.731" y2="0.474" gradientUnits="objectBoundingBox">
      <stop offset="0" stop-color="#006537"/>
      <stop offset="0.33" stop-color="#008a40"/>
      <stop offset="0.66" stop-color="#36ac47"/>
      <stop offset="1" stop-color="#9ac341"/>
    </linearGradient>
    <linearGradient id="linear-gradient-11" x1="-4.199" y1="0.298" x2="8.372" y2="0.298" xlink:href="#linear-gradient-10"/>
    <linearGradient id="linear-gradient-12" x1="-6.345" y1="0.303" x2="8.912" y2="0.303" xlink:href="#linear-gradient-10"/>
    <linearGradient id="linear-gradient-13" x1="-9.008" y1="0.425" x2="9.679" y2="0.425" xlink:href="#linear-gradient-10"/>
    <linearGradient id="linear-gradient-14" x1="-11.53" y1="0.496" x2="10.102" y2="0.496" xlink:href="#linear-gradient-10"/>
    <linearGradient id="linear-gradient-15" x1="-8.914" y1="0.507" x2="6.417" y2="0.507" xlink:href="#linear-gradient-10"/>
    <linearGradient id="linear-gradient-16" x1="-13.844" y1="0.496" x2="7.937" y2="0.496" xlink:href="#linear-gradient-10"/>
    <linearGradient id="linear-gradient-17" x1="-8.871" y1="0.292" x2="4.121" y2="0.292" xlink:href="#linear-gradient-10"/>
    <linearGradient id="linear-gradient-18" x1="-9.633" y1="0.298" x2="3.015" y2="0.298" xlink:href="#linear-gradient-10"/>
    <linearGradient id="linear-gradient-19" x1="-15.907" y1="0.425" x2="2.78" y2="0.425" xlink:href="#linear-gradient-10"/>
    <linearGradient id="linear-gradient-20" x1="-11.384" y1="0.298" x2="1.188" y2="0.298" xlink:href="#linear-gradient-10"/>
    <linearGradient id="linear-gradient-21" x1="-12.481" y1="0.297" x2="0.151" y2="0.297" xlink:href="#linear-gradient-10"/>
  </defs>
  <g id="Group_80799" data-name="Group 80799">
    <path id="Path_31233" data-name="Path 31233" d="M53.588,14.94,29.619,1.1,27.736,0,25.852,1.1,1.884,14.94,0,16.044V48.066l1.884,1.1,23.9,13.835,1.884,1.1,1.884-1.1,23.9-13.835,1.884-1.1V15.979Zm.455,3.962V47.157L52.224,48.2,29.554,61.317l-1.819,1.039-1.819-1.039L3.248,48.261,1.429,47.222v-30.4l1.819-1.039L25.917,2.728l1.819-1.039,1.819,1.039L52.224,15.849l1.819,1.039V18.9Z" fill="#fff"/>
    <path id="Path_31234" data-name="Path 31234" d="M7.8,32.8V55.794l12.276-7.145Z" transform="translate(-2.734 -11.495)"/>
    <path id="Path_31235" data-name="Path 31235" d="M70.976,55.794V32.8L58.7,48.649Z" transform="translate(-20.572 -11.495)"/>
    <path id="Path_31236" data-name="Path 31236" d="M44.255,69.782l-.455.52v8.184L65.04,66.21,52.569,59Z" transform="translate(-15.35 -20.677)"/>
    <path id="Path_31237" data-name="Path 31237" d="M7.8,29.1Z" transform="translate(-2.734 -10.198)"/>
    <path id="Path_31238" data-name="Path 31238" d="M29.9,57.7l.13.13,8.184,10.588-5.131-6.625Z" transform="translate(-10.479 -20.221)"/>
    <path id="Path_31239" data-name="Path 31239" d="M21.371,59,8.9,66.21,30.14,78.486V70.3l-.455-.52Z" transform="translate(-3.119 -20.677)"/>
    <path id="Path_31240" data-name="Path 31240" d="M30.325,3.639,28.507,2.6,26.688,3.639,4.019,16.7,2.2,17.734V48.068l1.819,1.1L26.688,62.293l1.819,1.039,1.819-1.039L52.995,49.173l1.819-1.039v-30.4L52.995,16.7ZM52.6,19.813V46.834l-.715.39L29.221,60.345l-.715.39-.715-.39L5.123,47.289l-.715-.39V18.969l.715-.39L27.792,5.523l.715-.39.715.39L51.89,18.644l.715.39v.779Z" transform="translate(-0.771 -0.911)"/>
    <path id="Path_31241" data-name="Path 31241" d="M56.42,46.638,70,29.1,55.9,47.352Z" transform="translate(-19.59 -10.198)"/>
    <path id="Path_31242" data-name="Path 31242" d="M52.45,21.211,31.275,9,10.1,21.211,31.275,31.994Z" transform="translate(-3.54 -3.154)"/>
    <path id="Path_31243" data-name="Path 31243" d="M30.413,6.89,29.7,6.5l-.715.39L6.315,19.946l-.715.39V48.2l.715.39L28.984,61.711l.715.39.715-.39L53.082,48.591l.715-.39V20.335l-.715-.39ZM29.7,8.124,50.873,20.335,29.7,31.118,8.523,20.335Zm-.715,51.964L7.744,47.811,20.215,40.6l8.314,10.782.39.52v8.184ZM7.029,46.577V23.583L19.305,39.5ZM30.413,60.088V51.9l.39-.52L39.182,40.6l12.471,7.21ZM52.367,46.577,40.091,39.432,52.367,23.518Zm-13.576-7.86-.52.715L29.7,50.474h0L21.514,39.887l-.065-.13L7.029,21.18h0L26.45,31.053,29.7,32.742,52.367,21.18Z" transform="translate(-1.963 -2.278)" fill="#fff"/>
    <path id="Path_31244" data-name="Path 31244" d="M27.221,39.038,7.8,29.1h0Z" transform="translate(-2.734 -10.198)"/>
    <path id="Path_31245" data-name="Path 31245" d="M27.221,39.038,7.8,29.1h0Z" transform="translate(-2.734 -10.198)" fill="url(#linear-gradient)"/>
    <path id="Path_31246" data-name="Path 31246" d="M42.7,40.662V58.395l8.184-10.588.39-.455L65.369,29.1Z" transform="translate(-14.964 -10.198)"/>
    <path id="Path_31247" data-name="Path 31247" d="M42.7,40.662V58.395l8.184-10.588.39-.455L65.369,29.1Z" transform="translate(-14.964 -10.198)" fill="url(#linear-gradient-2)"/>
    <path id="Path_31248" data-name="Path 31248" d="M34.8,64l5.131,6.625h0Z" transform="translate(-12.196 -22.429)"/>
    <path id="Path_31249" data-name="Path 31249" d="M34.8,64l5.131,6.625h0Z" transform="translate(-12.196 -22.429)" fill="url(#linear-gradient-3)"/>
    <path id="Path_31250" data-name="Path 31250" d="M42.7,74.2Z" transform="translate(-14.964 -26.004)" fill="#fff"/>
    <path id="Path_31251" data-name="Path 31251" d="M42.7,74.2Z" transform="translate(-14.964 -26.004)" fill="#fff"/>
    <path id="Path_31252" data-name="Path 31252" d="M42.7,68.242h0L51.274,57.2l-.39.455Z" transform="translate(-14.964 -20.046)" fill="#fff"/>
    <path id="Path_31253" data-name="Path 31253" d="M42.7,68.242h0L51.274,57.2l-.39.455Z" transform="translate(-14.964 -20.046)" fill="url(#linear-gradient-4)"/>
    <path id="Path_31254" data-name="Path 31254" d="M7.8,29.1h0L21.376,46.638l.779,1.039,3.183,4.092Z" transform="translate(-2.734 -10.198)"/>
    <path id="Path_31255" data-name="Path 31255" d="M7.8,29.1h0L21.376,46.638l.779,1.039,3.183,4.092Z" transform="translate(-2.734 -10.198)" fill="url(#linear-gradient-5)"/>
    <path id="Path_31256" data-name="Path 31256" d="M40.948,46.024,37.7,44.4Z" transform="translate(-13.212 -15.56)" fill="#fff"/>
    <path id="Path_31257" data-name="Path 31257" d="M40.948,46.024,37.7,44.4Z" transform="translate(-13.212 -15.56)" fill="url(#linear-gradient-6)"/>
    <path id="Path_31258" data-name="Path 31258" d="M7.8,29.1h0L22.155,47.677l-.779-1.039Z" transform="translate(-2.734 -10.198)" fill="#fff"/>
    <path id="Path_31259" data-name="Path 31259" d="M7.8,29.1h0L22.155,47.677l-.779-1.039Z" transform="translate(-2.734 -10.198)" fill="url(#linear-gradient-7)"/>
    <path id="Path_31260" data-name="Path 31260" d="M42.7,74.2Z" transform="translate(-14.964 -26.004)" fill="#fff"/>
    <path id="Path_31261" data-name="Path 31261" d="M42.7,74.2Z" transform="translate(-14.964 -26.004)" fill="#fff"/>
    <path id="Path_31262" data-name="Path 31262" d="M25.338,51.769l5.131,6.625h0V40.662h0l-3.248-1.624L7.8,29.1Z" transform="translate(-2.734 -10.198)"/>
    <path id="Path_31263" data-name="Path 31263" d="M25.338,51.769l5.131,6.625h0V40.662h0l-3.248-1.624L7.8,29.1Z" transform="translate(-2.734 -10.198)" fill="url(#linear-gradient-8)"/>
    <path id="Path_31264" data-name="Path 31264" d="M25.338,51.769l5.131,6.625h0V40.662h0l-3.248-1.624L7.8,29.1Z" transform="translate(-2.734 -10.198)" fill="url(#linear-gradient-9)"/>
    <rect id="Rectangle_22345" data-name="Rectangle 22345" transform="translate(27.736 48.196)" fill="#fff"/>
    <rect id="Rectangle_22346" data-name="Rectangle 22346" transform="translate(27.736 48.196)" fill="#fff"/>
    <rect id="Rectangle_22347" data-name="Rectangle 22347" transform="translate(27.736 48.196)" fill="#fff"/>
  </g>
  <g id="Group_80807" data-name="Group 80807" transform="translate(59.304 20.266)">
    <g id="Group_80800" data-name="Group 80800" transform="translate(24.358 0.65)">
      <path id="Path_31265" data-name="Path 31265" d="M135.166,45.84H143.8V40.9h-8.639V37.331h9.094V32.2H128.8V54.869h16.044V49.738h-9.678Z" transform="translate(-128.8 -32.2)"/>
    </g>
    <g id="Group_80801" data-name="Group 80801" transform="translate(43.455 0.585)">
      <path id="Path_31266" data-name="Path 31266" d="M175.088,43.207a7.148,7.148,0,0,0,1.039-4.027,7.356,7.356,0,0,0-.65-3.313,6.219,6.219,0,0,0-1.884-2.208A7.257,7.257,0,0,0,170.8,32.49a14.32,14.32,0,0,0-3.443-.39H158.2V54.834h6.366V46.78h1.494l4.222,8.054h7.145L172.1,45.546A6,6,0,0,0,175.088,43.207Zm-5.651-2.533a2.6,2.6,0,0,1-.65.779,2.277,2.277,0,0,1-.909.39,5.685,5.685,0,0,1-1.039.13H164.7V37.3h2.144a4.009,4.009,0,0,1,2.014.455,1.649,1.649,0,0,1,.844,1.689A2.473,2.473,0,0,1,169.437,40.674Z" transform="translate(-158.2 -32.1)"/>
    </g>
    <g id="Group_80802" data-name="Group 80802" transform="translate(64.045 0.65)">
      <rect id="Rectangle_22348" data-name="Rectangle 22348" width="6.495" height="22.734"/>
    </g>
    <g id="Group_80803" data-name="Group 80803" transform="translate(73.464 0.585)">
      <path id="Path_31267" data-name="Path 31267" d="M221.613,34.568a10.944,10.944,0,0,0-4.027-1.884,18.966,18.966,0,0,0-4.742-.585H204.4V54.834h8.639a15.957,15.957,0,0,0,4.677-.65,11.324,11.324,0,0,0,4.027-2.079,10.229,10.229,0,0,0,2.793-3.573,11.3,11.3,0,0,0,1.039-5.131,12.1,12.1,0,0,0-1.039-5.391A12.641,12.641,0,0,0,221.613,34.568ZM218.17,46.26a4.567,4.567,0,0,1-1.364,1.884,5.4,5.4,0,0,1-2.014,1.039,9.751,9.751,0,0,1-2.4.325h-1.624V37.426h1.754a9.751,9.751,0,0,1,2.4.325,5.5,5.5,0,0,1,1.949.974,4.847,4.847,0,0,1,1.3,1.819,7.327,7.327,0,0,1,.455,2.858A7.542,7.542,0,0,1,218.17,46.26Z" transform="translate(-204.4 -32.1)"/>
    </g>
    <g id="Group_80804" data-name="Group 80804" transform="translate(0 0.585)">
      <path id="Path_31268" data-name="Path 31268" d="M102.862,46,97.8,32.1H91.3l8.249,22.8h6.5l8.379-22.8h-6.5Z" transform="translate(-91.3 -32.1)"/>
    </g>
    <g id="Group_80805" data-name="Group 80805" transform="translate(96.458 0.065)">
      <path id="Path_31269" data-name="Path 31269" d="M251.752,31.3A11.952,11.952,0,1,0,263.7,43.252,11.92,11.92,0,0,0,251.752,31.3Zm0,17.733a5.846,5.846,0,1,1,5.846-5.846A5.822,5.822,0,0,1,251.752,49.033Z" transform="translate(-239.8 -31.3)"/>
    </g>
    <g id="Group_80806" data-name="Group 80806" transform="translate(122.115)">
      <path id="Path_31270" data-name="Path 31270" d="M291.252,49a5.846,5.846,0,0,1,0-11.692,5.92,5.92,0,0,1,5.391,3.443l5.846-1.559a11.887,11.887,0,1,0,0,8.054l-5.911-1.559A5.892,5.892,0,0,1,291.252,49Z" transform="translate(-279.3 -31.2)"/>
    </g>
  </g>
  <g id="Group_80809" data-name="Group 80809" transform="translate(215.74 18.642)">
    <g id="Group_80808" data-name="Group 80808">
      <path id="Path_31271" data-name="Path 31271" d="M350.756,46.809a8.684,8.684,0,0,1-1.624,4.417,9.536,9.536,0,0,1-3.767,2.988,10.937,10.937,0,0,1-5,.974,7.813,7.813,0,0,1-5.846-2.4,9.66,9.66,0,0,1-2.338-6.3,18.411,18.411,0,0,1,.585-5.781,15.954,15.954,0,0,1,2.338-5.456A10.849,10.849,0,0,1,339,31.8a10.324,10.324,0,0,1,4.872-1.1,8.813,8.813,0,0,1,6.171,2.338,9.109,9.109,0,0,1,2.468,6.236h-5.586a5,5,0,0,0-.779-3.118,3.2,3.2,0,0,0-2.6-.974c-2.923-.13-4.742,2.208-5.391,6.885a32.4,32.4,0,0,0-.455,4.547c-.065,2.663.909,4.027,2.988,4.157a4.112,4.112,0,0,0,3.118-.974,4.878,4.878,0,0,0,1.494-2.923Z" transform="translate(-332.14 -29.401)" fill="url(#linear-gradient-10)"/>
      <path id="Path_31272" data-name="Path 31272" d="M372.077,58.515a8.349,8.349,0,0,1-4.222-1.1,7.064,7.064,0,0,1-2.793-3.053,8.05,8.05,0,0,1-.779-4.352l.065-.455a10.776,10.776,0,0,1,3.053-6.885,8.464,8.464,0,0,1,6.366-2.468,6.584,6.584,0,0,1,3.9,1.169A5.735,5.735,0,0,1,380,44.485a9.764,9.764,0,0,1,.52,4.417l-.325,2.208H369.674a3.332,3.332,0,0,0,.779,2.273,2.789,2.789,0,0,0,2.208.909,5.669,5.669,0,0,0,4.222-1.819l2.273,2.988a6,6,0,0,1-2.793,2.208,9.516,9.516,0,0,1-3.9.844Zm1.3-14.03a2.846,2.846,0,0,0-2.014.715,5.5,5.5,0,0,0-1.429,2.468h5.391l.13-.455a5.945,5.945,0,0,0,.065-1.039A2,2,0,0,0,373.376,44.485Z" transform="translate(-343.393 -32.728)" fill="url(#linear-gradient-11)"/>
      <path id="Path_31273" data-name="Path 31273" d="M402.9,45.526c-.585-.065-1.1-.13-1.689-.195a4.083,4.083,0,0,0-3.7,1.689l-2.014,11.172H390.1l3.053-17.668h5l-.39,2.338c1.169-1.754,2.533-2.663,4.092-2.663a6.286,6.286,0,0,1,1.689.26Z" transform="translate(-352.452 -32.73)" fill="url(#linear-gradient-12)"/>
      <path id="Path_31274" data-name="Path 31274" d="M419.964,33.965l-.779,4.417h2.793l-.65,3.832h-2.793l-1.364,8.119a1.758,1.758,0,0,0,.13,1.234,1.187,1.187,0,0,0,1.1.455c.26,0,.715,0,1.429-.065l-.39,3.962a7.1,7.1,0,0,1-2.858.39,4.7,4.7,0,0,1-3.767-1.494,5.077,5.077,0,0,1-1.039-3.9l1.429-8.769H411l.65-3.832h2.208l.779-4.417h5.326Z" transform="translate(-359.777 -30.522)" fill="url(#linear-gradient-13)"/>
      <path id="Path_31275" data-name="Path 31275" d="M432.491,54.478H427.1l3.053-17.668h5.391Zm-1.819-22.085a2.7,2.7,0,0,1,.844-2.014,3.358,3.358,0,0,1,4.222-.065,2.256,2.256,0,0,1,.844,1.884,2.6,2.6,0,0,1-.844,2.014,3.111,3.111,0,0,1-2.143.779,3.223,3.223,0,0,1-2.079-.715A2.452,2.452,0,0,1,430.673,32.393Z" transform="translate(-365.419 -29.015)" fill="url(#linear-gradient-14)"/>
      <path id="Path_31276" data-name="Path 31276" d="M442.465,54.162l2.4-13.835H442.4l.65-3.832h2.468l.195-1.559a7.111,7.111,0,0,1,2.273-4.482,7.454,7.454,0,0,1,5.131-1.754,15.074,15.074,0,0,1,2.663.39l-.39,4.092a5.25,5.25,0,0,0-1.3-.195,3.619,3.619,0,0,0-1.949.52,2.494,2.494,0,0,0-.974,1.559l-.26,1.429h3.313l-.65,3.832H450.26l-2.4,13.835Z" transform="translate(-370.781 -28.7)" fill="url(#linear-gradient-15)"/>
      <path id="Path_31277" data-name="Path 31277" d="M464.891,54.478H459.5l3.053-17.668h5.391Zm-1.884-22.085a2.7,2.7,0,0,1,.844-2.014,3.358,3.358,0,0,1,4.222-.065,2.256,2.256,0,0,1,.844,1.884,2.6,2.6,0,0,1-.844,2.014,3.111,3.111,0,0,1-2.144.779,3.223,3.223,0,0,1-2.079-.715A2.452,2.452,0,0,1,463.008,32.393Z" transform="translate(-376.774 -29.015)" fill="url(#linear-gradient-16)"/>
      <path id="Path_31278" data-name="Path 31278" d="M481.675,54.361a2.406,2.406,0,0,0,1.819-.65,3.188,3.188,0,0,0,.844-1.754h5a6.655,6.655,0,0,1-1.169,3.508,6.936,6.936,0,0,1-2.858,2.4,7.674,7.674,0,0,1-3.832.779,6.854,6.854,0,0,1-5.456-2.533,8.495,8.495,0,0,1-1.559-6.366l.065-.39a12.326,12.326,0,0,1,1.494-4.742,8.322,8.322,0,0,1,3.183-3.183,7.822,7.822,0,0,1,4.417-1.039,6.694,6.694,0,0,1,4.872,1.949,7.022,7.022,0,0,1,1.689,5.131h-5c.065-1.884-.585-2.793-2.014-2.858-1.884-.065-2.988,1.494-3.248,4.742l-.13,1.689v.65C479.791,53.387,480.441,54.3,481.675,54.361Z" transform="translate(-381.995 -32.796)" fill="url(#linear-gradient-17)"/>
      <path id="Path_31279" data-name="Path 31279" d="M509.17,58.187a5.662,5.662,0,0,1-.26-1.624,5.782,5.782,0,0,1-4.352,1.949,5.141,5.141,0,0,1-3.832-1.559,4.57,4.57,0,0,1-1.429-3.637,5.234,5.234,0,0,1,2.4-4.417A11.166,11.166,0,0,1,508,47.34l1.819.065.195-.974.065-.844a1.45,1.45,0,0,0-1.494-1.559,2.07,2.07,0,0,0-2.143,1.949H501.05a5.415,5.415,0,0,1,1.169-3.118,6.923,6.923,0,0,1,2.923-2.014,9.971,9.971,0,0,1,3.962-.65,8.21,8.21,0,0,1,3.508.844,5.329,5.329,0,0,1,2.273,2.208,5.42,5.42,0,0,1,.585,3.248l-1.3,8.314-.065,1.039a4.259,4.259,0,0,0,.325,2.079v.325H509.17Zm-3.053-3.573a3.363,3.363,0,0,0,2.858-1.429l.52-2.858h-1.364a3.278,3.278,0,0,0-2.208.779,2.852,2.852,0,0,0-1.1,2.014,1.25,1.25,0,0,0,.26,1.1A1.371,1.371,0,0,0,506.117,54.615Z" transform="translate(-390.718 -32.725)" fill="url(#linear-gradient-18)"/>
      <path id="Path_31280" data-name="Path 31280" d="M536.564,33.965l-.779,4.417h2.793l-.65,3.832h-2.793l-1.364,8.119a1.758,1.758,0,0,0,.13,1.234,1.187,1.187,0,0,0,1.1.455c.26,0,.714,0,1.429-.065l-.39,3.962a7.1,7.1,0,0,1-2.858.39,4.7,4.7,0,0,1-3.767-1.494,5.077,5.077,0,0,1-1.039-3.9l1.429-8.769H527.6l.65-3.832h2.208l.779-4.417h5.326Z" transform="translate(-400.64 -30.522)" fill="url(#linear-gradient-19)"/>
      <path id="Path_31281" data-name="Path 31281" d="M552.577,58.515a8.349,8.349,0,0,1-4.222-1.1,7.064,7.064,0,0,1-2.793-3.053,8.05,8.05,0,0,1-.779-4.352l.065-.455a10.776,10.776,0,0,1,3.053-6.885,8.464,8.464,0,0,1,6.366-2.468,6.584,6.584,0,0,1,3.9,1.169,5.734,5.734,0,0,1,2.338,3.118,9.764,9.764,0,0,1,.52,4.417l-.325,2.208H550.174a3.332,3.332,0,0,0,.779,2.273,2.789,2.789,0,0,0,2.208.909,5.669,5.669,0,0,0,4.222-1.819l2.273,2.988a6,6,0,0,1-2.793,2.208,9.516,9.516,0,0,1-3.9.844Zm1.3-14.03a2.846,2.846,0,0,0-2.014.715,5.5,5.5,0,0,0-1.429,2.468h5.391l.13-.455a5.945,5.945,0,0,0,.065-1.039A2,2,0,0,0,553.876,44.485Z" transform="translate(-406.65 -32.728)" fill="url(#linear-gradient-20)"/>
      <path id="Path_31282" data-name="Path 31282" d="M580.673,53.126c.13-.715-.39-1.234-1.689-1.624l-1.169-.325a9.216,9.216,0,0,1-4.157-2.079,3.979,3.979,0,0,1-1.234-3.183,5.162,5.162,0,0,1,2.273-4.157,8.608,8.608,0,0,1,5.326-1.559,7.863,7.863,0,0,1,5.066,1.559,5.025,5.025,0,0,1,1.949,4.157h-5.326c.065-1.364-.585-2.079-1.819-2.079a2.527,2.527,0,0,0-1.494.455,2.185,2.185,0,0,0-.844,1.3c-.195.909.585,1.494,2.338,1.819a16.463,16.463,0,0,1,3.508,1.234,4.926,4.926,0,0,1,1.884,1.754,4.09,4.09,0,0,1,.585,2.533,4.68,4.68,0,0,1-1.039,2.858,6.854,6.854,0,0,1-2.858,2.014,10.43,10.43,0,0,1-4.092.715,8.216,8.216,0,0,1-3.573-.779,5.91,5.91,0,0,1-2.533-2.144,6.307,6.307,0,0,1-.974-3.118h5a2.067,2.067,0,0,0,2.338,2.338,2.862,2.862,0,0,0,1.689-.455A1.57,1.57,0,0,0,580.673,53.126Z" transform="translate(-415.779 -32.73)" fill="url(#linear-gradient-21)"/>
    </g>
  </g>
</svg>
