<svg xmlns="http://www.w3.org/2000/svg" xmlns:xlink="http://www.w3.org/1999/xlink" width="87.715" height="52.484" viewBox="0 0 87.715 52.484">
  <defs>
    <clipPath id="clip-path">
      <rect id="Rectangle_1506" data-name="Rectangle 1506" width="87.715" height="52.484" fill="none"/>
    </clipPath>
  </defs>
  <g id="mastercard_icon" transform="translate(0 0)">
    <g id="Group_3380" data-name="Group 3380" transform="translate(0 0)" clip-path="url(#clip-path)">
      <path id="Path_14034" data-name="Path 14034" d="M52.484,26.243A26.242,26.242,0,1,1,26.243,0,26.241,26.241,0,0,1,52.484,26.243" transform="translate(0 0)" fill="#e50020"/>
      <path id="Path_14035" data-name="Path 14035" d="M84.458,0A26.148,26.148,0,0,0,66.841,6.793,26.788,26.788,0,0,0,64.193,9.57h5.3a26.92,26.92,0,0,1,2,2.779h-9.3a26.408,26.408,0,0,0-1.512,2.779H73.006a26.067,26.067,0,0,1,1.111,2.778H59.569a25.958,25.958,0,0,0-.763,2.779H74.879a26.41,26.41,0,0,1-.761,13.893H59.569a26.2,26.2,0,0,0,1.11,2.779H73.006a26.155,26.155,0,0,1-1.513,2.779h-9.3a26.477,26.477,0,0,0,2,2.777h5.3a26.208,26.208,0,0,1-2.651,2.779A26.242,26.242,0,1,0,84.458,0" transform="translate(-22.985 0)" fill="#ff9f1c"/>
      <path id="Path_14036" data-name="Path 14036" d="M138.258,66.551a.848.848,0,1,1,.848.849.848.848,0,0,1-.848-.849m.848.645a.644.644,0,1,0-.644-.645.645.645,0,0,0,.644.645m-.115-.273h-.174V66.18h.315a.354.354,0,0,1,.191.035.229.229,0,0,1,.094.187.2.2,0,0,1-.13.192l.138.328h-.193l-.114-.294h-.127Zm0-.422h.1a.23.23,0,0,0,.106-.014.1.1,0,0,0,.044-.086.1.1,0,0,0-.043-.076.239.239,0,0,0-.111-.014h-.093Z" transform="translate(-54.04 -25.681)" fill="#ff9f1c"/>
      <path id="Path_14037" data-name="Path 14037" d="M29.285,43.792a4.784,4.784,0,0,0-.637-.045c-1.614,0-2.431.554-2.431,1.649a.993.993,0,0,0,1.021,1.1c1.16,0,2-1.1,2.047-2.705m2.072,4.823H29l.054-1.122A3.576,3.576,0,0,1,26.064,48.8a2.663,2.663,0,0,1-2.6-2.957c0-2.636,1.841-4.173,5-4.173a9.716,9.716,0,0,1,1.162.083,2.657,2.657,0,0,0,.111-.7c0-.716-.5-.985-1.827-.985a9.5,9.5,0,0,0-3.016.488c.03-.18.4-2.435.4-2.435a11.323,11.323,0,0,1,3.409-.573c2.446,0,3.743,1.1,3.739,3.174a13.807,13.807,0,0,1-.231,2.145c-.247,1.567-.778,4.929-.85,5.748" transform="translate(-9.17 -14.676)" fill="#002861"/>
      <path id="Path_14038" data-name="Path 14038" d="M14.174,47.175h-2.85l1.633-10.232L9.313,47.175H7.372L7.132,37,5.417,47.175H2.75L4.977,33.864h4.1l.248,7.45,2.5-7.45h4.556Z" transform="translate(-1.075 -13.236)" fill="#002861"/>
      <path id="Path_14039" data-name="Path 14039" d="M102.963,43.792a4.764,4.764,0,0,0-.634-.045c-1.616,0-2.432.554-2.432,1.649a.993.993,0,0,0,1.021,1.1c1.16,0,2-1.1,2.045-2.705m2.074,4.823h-2.36l.054-1.122A3.576,3.576,0,0,1,99.745,48.8a2.662,2.662,0,0,1-2.6-2.957c0-2.636,1.841-4.173,5-4.173a9.724,9.724,0,0,1,1.161.083,2.65,2.65,0,0,0,.111-.7c0-.716-.5-.985-1.826-.985a9.51,9.51,0,0,0-3.017.488c.03-.18.4-2.435.4-2.435a11.315,11.315,0,0,1,3.407-.573c2.448,0,3.743,1.1,3.74,3.174a13.793,13.793,0,0,1-.23,2.145c-.247,1.567-.778,4.929-.85,5.748" transform="translate(-37.97 -14.676)" fill="#002861"/>
      <path id="Path_14040" data-name="Path 14040" d="M54.449,47.555a6.524,6.524,0,0,1-2.047.351,2.084,2.084,0,0,1-2.251-2.378,25.025,25.025,0,0,1,.39-2.885c.164-1.012,1.235-7.387,1.235-7.387h2.832l-.33,1.638h1.71L55.6,39.5H53.886c-.329,2.058-.8,4.623-.8,4.963,0,.558.3.8.975.8a2.3,2.3,0,0,0,.768-.1Z" transform="translate(-19.602 -13.78)" fill="#002861"/>
      <path id="Path_14041" data-name="Path 14041" d="M66.5,48.363a9.6,9.6,0,0,1-2.9.439c-3.171,0-4.823-1.659-4.823-4.829,0-3.7,2.1-6.425,4.957-6.425a3.617,3.617,0,0,1,3.826,3.917,11.591,11.591,0,0,1-.35,2.663H61.568c-.191,1.57.814,2.225,2.463,2.225a6.715,6.715,0,0,0,2.943-.68Zm-1.592-6.417c.016-.226.3-1.932-1.318-1.932-.9,0-1.547.688-1.809,1.932Z" transform="translate(-22.973 -14.676)" fill="#002861"/>
      <path id="Path_14042" data-name="Path 14042" d="M38.536,41.213a3.16,3.16,0,0,0,2.17,3.022c1.153.543,1.332.7,1.332,1.195,0,.674-.509.98-1.636.98a8.006,8.006,0,0,1-2.553-.428s-.373,2.387-.391,2.5a13.241,13.241,0,0,0,2.965.32c3.005,0,4.394-1.145,4.394-3.618a2.966,2.966,0,0,0-2.008-3.018c-1.194-.547-1.332-.671-1.332-1.175,0-.585.474-.884,1.394-.884a15.759,15.759,0,0,1,2.048.161l.405-2.51a19.2,19.2,0,0,0-2.508-.211c-3.186,0-4.29,1.665-4.28,3.665" transform="translate(-14.641 -14.676)" fill="#002861"/>
      <path id="Path_14043" data-name="Path 14043" d="M85.982,35.9a5.422,5.422,0,0,1,2.546.719l.467-2.889A8.361,8.361,0,0,0,85.863,32.6a5.673,5.673,0,0,0-4.651,2.507c-1.654-.547-2.334.559-3.167,1.662l-.739.172a5.507,5.507,0,0,0,.09-1.089H74.776c-.356,3.351-.99,6.744-1.485,10.1l-.13.728h2.851c.476-3.091.736-5.069.9-6.41l1.073-.6c.161-.6.662-.8,1.668-.773a12.111,12.111,0,0,0-.2,2.218c0,3.542,1.912,5.747,4.978,5.747a8.9,8.9,0,0,0,2.519-.389l.5-3.033a5.539,5.539,0,0,1-2.419.683c-1.656,0-2.658-1.223-2.658-3.243,0-2.932,1.489-4.985,3.617-4.985" transform="translate(-28.596 -12.744)" fill="#002861"/>
      <path id="Path_14044" data-name="Path 14044" d="M125.15,33.864l-.633,3.845a3.564,3.564,0,0,0-2.72-1.766c-1.438,0-2.746,1.09-3.6,2.695a23.319,23.319,0,0,1-2.426-.669v.011a15.819,15.819,0,0,0,.126-1.63h-2.617c-.356,3.351-.99,6.744-1.484,10.1l-.131.728h2.851c.386-2.5.679-4.574.9-6.219.975-.881,1.463-1.647,2.445-1.6a9.287,9.287,0,0,0-.69,3.512c0,2.705,1.368,4.491,3.44,4.491a3.358,3.358,0,0,0,2.627-1.195l-.134,1.007h2.7l2.17-13.31Zm-3.563,10.81c-.97,0-1.459-.719-1.459-2.134,0-2.127.917-3.636,2.209-3.636.979,0,1.51.745,1.51,2.12,0,2.146-.933,3.65-2.259,3.65" transform="translate(-43.644 -13.236)" fill="#002861"/>
      <path id="Path_14045" data-name="Path 14045" d="M15.52,45.879H12.671L14.3,35.647,10.659,45.879H8.718l-.24-10.172L6.762,45.879H4.1l2.228-13.31h4.1l.114,8.24,2.765-8.24h4.424Z" transform="translate(-1.601 -12.73)" fill="#fff"/>
      <path id="Path_14046" data-name="Path 14046" d="M30.632,42.5A4.75,4.75,0,0,0,30,42.452c-1.615,0-2.432.553-2.432,1.646a1,1,0,0,0,1.022,1.1c1.161,0,2-1.1,2.047-2.706M32.7,47.318h-2.36L30.4,46.2a3.579,3.579,0,0,1-2.986,1.309,2.663,2.663,0,0,1-2.6-2.958c0-2.636,1.841-4.172,5-4.172a9.5,9.5,0,0,1,1.161.084,2.671,2.671,0,0,0,.111-.7c0-.716-.5-.983-1.827-.983a9.448,9.448,0,0,0-3.016.485c.03-.18.4-2.435.4-2.435a11.361,11.361,0,0,1,3.409-.573c2.446,0,3.742,1.1,3.739,3.174a13.778,13.778,0,0,1-.231,2.145c-.247,1.567-.778,4.93-.85,5.748" transform="translate(-9.697 -14.169)" fill="#fff"/>
      <path id="Path_14047" data-name="Path 14047" d="M94.373,32.714,93.906,35.6a5.436,5.436,0,0,0-2.544-.718c-2.128,0-3.619,2.055-3.619,4.987,0,2.02,1,3.241,2.659,3.241a5.506,5.506,0,0,0,2.42-.683l-.5,3.034a8.916,8.916,0,0,1-2.518.39c-3.067,0-4.978-2.206-4.978-5.746,0-4.759,2.641-8.085,6.416-8.085a9.854,9.854,0,0,1,3.132.692" transform="translate(-33.155 -12.516)" fill="#fff"/>
      <path id="Path_14048" data-name="Path 14048" d="M104.31,42.5a4.719,4.719,0,0,0-.634-.044c-1.615,0-2.432.553-2.432,1.646a1,1,0,0,0,1.021,1.1c1.16,0,2-1.1,2.045-2.706m2.073,4.822h-2.36l.054-1.121a3.58,3.58,0,0,1-2.985,1.309,2.662,2.662,0,0,1-2.6-2.958c0-2.636,1.84-4.172,5-4.172a9.464,9.464,0,0,1,1.16.084,2.678,2.678,0,0,0,.112-.7c0-.716-.5-.983-1.826-.983a9.454,9.454,0,0,0-3.016.485l.395-2.435a11.367,11.367,0,0,1,3.41-.573c2.446,0,3.743,1.1,3.739,3.174a13.679,13.679,0,0,1-.23,2.145c-.247,1.567-.778,4.93-.85,5.748" transform="translate(-38.496 -14.169)" fill="#fff"/>
      <path id="Path_14049" data-name="Path 14049" d="M55.8,46.258a6.522,6.522,0,0,1-2.046.352A2.085,2.085,0,0,1,51.5,44.233a25.06,25.06,0,0,1,.391-2.887c.164-1.012,1.235-7.388,1.235-7.388h2.832L55.625,35.6h1.453l-.386,2.6H55.232c-.329,2.061-.8,4.623-.8,4.964,0,.559.3.8.976.8a2.27,2.27,0,0,0,.768-.1Z" transform="translate(-20.128 -13.273)" fill="#fff"/>
      <path id="Path_14050" data-name="Path 14050" d="M67.851,47.068a9.71,9.71,0,0,1-2.906.438c-3.171,0-4.823-1.659-4.823-4.829,0-3.7,2.1-6.426,4.955-6.426A3.618,3.618,0,0,1,68.9,40.17a11.716,11.716,0,0,1-.348,2.661H62.916c-.192,1.57.814,2.226,2.46,2.226a6.7,6.7,0,0,0,2.946-.683Zm-1.592-6.42c.015-.226.3-1.932-1.318-1.932-.9,0-1.547.689-1.81,1.932Z" transform="translate(-23.5 -14.169)" fill="#fff"/>
      <path id="Path_14051" data-name="Path 14051" d="M39.882,39.916a3.161,3.161,0,0,0,2.17,3.023c1.153.543,1.332.7,1.332,1.195,0,.674-.509.979-1.636.979a8.023,8.023,0,0,1-2.553-.426l-.391,2.5a13.226,13.226,0,0,0,2.965.321c3.006,0,4.395-1.145,4.395-3.618a2.962,2.962,0,0,0-2.008-3.016c-1.195-.549-1.332-.671-1.332-1.176,0-.585.473-.886,1.394-.886a15.789,15.789,0,0,1,2.047.164l.406-2.51a19.429,19.429,0,0,0-2.508-.212c-3.187,0-4.29,1.665-4.28,3.665" transform="translate(-15.167 -14.169)" fill="#fff"/>
      <path id="Path_14052" data-name="Path 14052" d="M130.666,45.879h-2.694l.133-1.008a3.355,3.355,0,0,1-2.627,1.2c-2.07,0-3.44-1.785-3.44-4.492,0-3.6,2.124-6.635,4.635-6.635a3.215,3.215,0,0,1,2.72,1.477l.632-3.847h2.809Zm-4.2-2.5c1.328,0,2.259-1.5,2.259-3.647,0-1.375-.531-2.123-1.51-2.123-1.292,0-2.209,1.509-2.209,3.637,0,1.417.491,2.133,1.459,2.133" transform="translate(-47.701 -12.73)" fill="#fff"/>
      <path id="Path_14053" data-name="Path 14053" d="M114.625,36.575c-.357,3.35-.99,6.743-1.486,10.1l-.13.729h2.849c1.02-6.62,1.265-7.912,2.864-7.75a10.635,10.635,0,0,1,1.081-3.14c-1.193-.249-1.86.426-2.733,1.707a9.932,9.932,0,0,0,.171-1.642Z" transform="translate(-44.172 -14.25)" fill="#fff"/>
      <path id="Path_14054" data-name="Path 14054" d="M76.125,36.575c-.358,3.35-.992,6.743-1.487,10.1l-.13.729h2.85c1.02-6.62,1.265-7.912,2.862-7.75a10.7,10.7,0,0,1,1.082-3.14c-1.192-.249-1.86.426-2.731,1.707a9.8,9.8,0,0,0,.17-1.642Z" transform="translate(-29.123 -14.25)" fill="#fff"/>
      <path id="Path_14055" data-name="Path 14055" d="M138.257,52.485a.847.847,0,1,1,.846.847.848.848,0,0,1-.846-.847m.846.644a.644.644,0,1,0-.643-.644.645.645,0,0,0,.643.644m-.113-.274h-.174v-.743h.315a.353.353,0,0,1,.19.038.221.221,0,0,1,.094.186.2.2,0,0,1-.129.192l.138.327h-.194l-.113-.294h-.127Zm0-.421h.1a.215.215,0,0,0,.106-.014.1.1,0,0,0,.043-.086.1.1,0,0,0-.041-.077.256.256,0,0,0-.111-.012h-.092Z" transform="translate(-54.04 -20.183)" fill="#fff"/>
    </g>
  </g>
</svg>
