<svg id="payment_img" xmlns="http://www.w3.org/2000/svg" xmlns:xlink="http://www.w3.org/1999/xlink" width="901.155" height="610.804" viewBox="0 0 901.155 610.804">
  <defs>
    <clipPath id="clip-path">
      <rect id="Rectangle_1504" data-name="Rectangle 1504" width="901.155" height="610.804" fill="none"/>
    </clipPath>
    <clipPath id="clip-path-2">
      <rect id="Rectangle_1455" data-name="Rectangle 1455" width="901.157" height="610.802" fill="none"/>
    </clipPath>
    <clipPath id="clip-path-3">
      <rect id="Rectangle_1456" data-name="Rectangle 1456" width="612.766" height="576.722" fill="none"/>
    </clipPath>
    <clipPath id="clip-path-5">
      <rect id="Rectangle_1467" data-name="Rectangle 1467" width="103.897" height="13.468" fill="none"/>
    </clipPath>
    <clipPath id="clip-path-6">
      <rect id="Rectangle_1482" data-name="Rectangle 1482" width="10.105" height="142.853" fill="none"/>
    </clipPath>
  </defs>
  <g id="Group_3369" data-name="Group 3369" clip-path="url(#clip-path)">
    <g id="Group_3358" data-name="Group 3358" transform="translate(0 0.002)">
      <g id="Group_3357" data-name="Group 3357" clip-path="url(#clip-path-2)">
        <path id="Path_13930" data-name="Path 13930" d="M1091.982,803.048c0,8.745-5.554,15.834-12.4,15.834h-276.6c-6.85,0-12.4-7.089-12.4-15.834s5.554-15.833,12.4-15.833h276.6c6.85,0,12.4,7.089,12.4,15.833" transform="translate(-404.632 -402.913)" fill="#b7e0d8"/>
        <path id="Path_13931" data-name="Path 13931" d="M1548.032,808.064A15.834,15.834,0,0,1,1532.2,823.9h-42.839a15.834,15.834,0,0,1,0-31.667H1532.2a15.834,15.834,0,0,1,15.834,15.834" transform="translate(-754.177 -405.479)" fill="#b7e0d8"/>
        <g id="Group_3371" data-name="Group 3371" transform="translate(516.41 274.188)" opacity="0.3">
          <path id="Path_13927" data-name="Path 13927" d="M1057.822,694.422a15.834,15.834,0,0,0,15.833,15.833h353.08a15.833,15.833,0,1,0,0-31.667h-353.08a15.834,15.834,0,0,0-15.833,15.834" transform="translate(-1057.822 -621.503)" fill="#a4ce4c"/>
          <path id="Path_13935" data-name="Path 13935" d="M1724.558,660.8a26.689,26.689,0,1,1-26.688-26.69,26.689,26.689,0,0,1,26.688,26.69" transform="translate(-1371.75 -598.74)" fill="#a4ce4c"/>
          <path id="Path_13936" data-name="Path 13936" d="M1605.641,606a44.345,44.345,0,1,1-44.345-44.345A44.346,44.346,0,0,1,1605.641,606" transform="translate(-1292.811 -561.655)" fill="#a4ce4c"/>
        </g>
        <path id="Path_13937" data-name="Path 13937" d="M1406.451,524.1a68.4,68.4,0,1,1-68.4-68.4,68.4,68.4,0,0,1,68.4,68.4" transform="translate(-649.827 -233.235)" fill="#b7e0d8"/>
        <path id="Path_13938" data-name="Path 13938" d="M1143.654,503.93a81.186,81.186,0,1,1-81.187-81.186,81.186,81.186,0,0,1,81.187,81.186" transform="translate(-502.237 -216.37)" fill="#b7e0d8"/>
        <path id="Path_13939" data-name="Path 13939" d="M1266.9,824.321a44.345,44.345,0,1,1-44.346-44.346,44.346,44.346,0,0,1,44.346,44.346" transform="translate(-603.03 -399.207)" fill="#b7e0d8"/>
        <g id="Group_3373" data-name="Group 3373" transform="translate(0 336.407)" opacity="0.3">
          <path id="Path_13926" data-name="Path 13926" d="M.235,702.448a13.342,13.342,0,0,0,13.343,13.342H311.123a13.343,13.343,0,1,0,0-26.685H13.578A13.342,13.342,0,0,0,.235,702.448" transform="translate(-0.12 -689.105)" fill="#a4ce4c"/>
          <path id="Path_13929" data-name="Path 13929" d="M0,867.6A15.834,15.834,0,0,0,15.833,883.43H58.672a15.834,15.834,0,1,0,0-31.667H15.833A15.834,15.834,0,0,0,0,867.6" transform="translate(0 -772.356)" fill="#a4ce4c"/>
          <path id="Path_13932" data-name="Path 13932" d="M155.244,711.6a22.492,22.492,0,1,1-22.491-22.491A22.492,22.492,0,0,1,155.244,711.6" transform="translate(-56.432 -689.105)" fill="#a4ce4c"/>
          <path id="Path_13940" data-name="Path 13940" d="M248.495,742.069a37.37,37.37,0,1,1-37.37-37.37,37.37,37.37,0,0,1,37.37,37.37" transform="translate(-88.93 -697.086)" fill="#a4ce4c"/>
        </g>
        <path id="Path_13941" data-name="Path 13941" d="M394.514,772.879a51.8,51.8,0,1,1-51.8-51.8,51.8,51.8,0,0,1,51.8,51.8" transform="translate(-148.892 -369.062)" fill="#b7e0d8"/>
        <path id="Path_13942" data-name="Path 13942" d="M535.874,750.464a51.8,51.8,0,1,1-51.8-51.8,51.8,51.8,0,0,1,51.8,51.8" transform="translate(-221.242 -357.589)" fill="#b7e0d8"/>
        <g id="Group_3372" data-name="Group 3372" transform="translate(78.977 116.158)" opacity="0.3">
          <path id="Path_13928" data-name="Path 13928" d="M161.777,536.054a15.834,15.834,0,0,0,15.833,15.833h353.08a15.834,15.834,0,0,0,0-31.667H177.61a15.834,15.834,0,0,0-15.833,15.834" transform="translate(-161.777 -382.418)" fill="#a4ce4c"/>
          <path id="Path_13933" data-name="Path 13933" d="M1350.818,336.6a15.834,15.834,0,0,1-15.834,15.834h-42.839a15.834,15.834,0,0,1,0-31.667h42.839a15.834,15.834,0,0,1,15.834,15.834" transform="translate(-732.215 -280.333)" fill="#a4ce4c"/>
          <path id="Path_13934" data-name="Path 13934" d="M1241.537,278.417a35.9,35.9,0,1,0,35.9-35.9,35.9,35.9,0,0,0-35.9,35.9" transform="translate(-714.418 -240.285)" fill="#a4ce4c"/>
          <path id="Path_13943" data-name="Path 13943" d="M402.527,377.524a61.471,61.471,0,1,1-61.471-61.471,61.472,61.472,0,0,1,61.471,61.471" transform="translate(-222.073 -277.922)" fill="#a4ce4c"/>
          <path id="Path_13944" data-name="Path 13944" d="M611.2,318.48a80.537,80.537,0,1,1-80.537-80.536A80.538,80.538,0,0,1,611.2,318.48" transform="translate(-309.358 -237.944)" fill="#a4ce4c"/>
          <path id="Path_13945" data-name="Path 13945" d="M284.56,478.944a28.722,28.722,0,1,1-28.723-28.721,28.723,28.723,0,0,1,28.723,28.721" transform="translate(-195.219 -346.592)" fill="#a4ce4c"/>
        </g>
        <path id="Path_13946" data-name="Path 13946" d="M415.29,677.222l-37.34,13.38,49.688,26.688Z" transform="translate(-193.442 -346.616)" fill="#b7e0d8"/>
      </g>
    </g>
    <g id="Group_3360" data-name="Group 3360" transform="translate(119.108 0.003)">
      <g id="Group_3359" data-name="Group 3359" clip-path="url(#clip-path-3)">
        <path id="Path_13947" data-name="Path 13947" d="M642.132,640.7a218.159,218.159,0,1,1,85.181-17.2,217.466,217.466,0,0,1-85.181,17.2m0-437.178c-120.393,0-218.342,97.948-218.342,218.342S521.739,640.2,642.132,640.2s218.342-97.947,218.342-218.341S762.526,203.521,642.132,203.521" transform="translate(-335.758 -103.915)" fill="#b7e0d8"/>
        <path id="Path_13948" data-name="Path 13948" d="M615.421,639.481q-1.447,0-2.892-.016l.011-.99c1.973.023,3.954.023,5.927,0l.011.99q-1.525.017-3.057.018m-8.839-.156c-1.969-.07-3.97-.165-5.941-.283l.059-.988c1.965.117,3.955.212,5.919.281Zm17.836-.006-.035-.989c1.967-.071,3.958-.168,5.918-.286l.06.988c-1.968.119-3.967.216-5.943.287m-29.711-.7c-1.971-.165-3.963-.357-5.921-.569l.106-.985c1.95.211,3.935.4,5.9.567Zm41.587-.014-.083-.986c1.956-.166,3.94-.357,5.9-.571l.106.984c-1.964.214-3.956.407-5.921.573m-53.414-1.269c-1.953-.26-3.935-.548-5.888-.856l.155-.978c1.944.307,3.917.594,5.863.854Zm65.241-.02-.131-.981c1.948-.261,3.921-.55,5.862-.858l.155.978c-1.948.309-3.929.6-5.886.861m-76.992-1.836c-1.941-.355-3.906-.741-5.839-1.143l.2-.969c1.924.4,3.88.785,5.815,1.139Zm88.742-.029-.179-.974c1.938-.356,3.894-.741,5.813-1.142l.2.969c-1.929.4-3.891.789-5.837,1.147m-100.388-2.4c-1.923-.451-3.867-.93-5.775-1.428l.249-.957c1.9.494,3.837.973,5.751,1.422Zm112.033-.036-.226-.964c1.913-.45,3.848-.929,5.751-1.426l.25.957c-1.91.5-3.853.98-5.775,1.432m-123.546-2.96c-1.9-.544-3.814-1.119-5.7-1.71l.3-.945c1.877.589,3.786,1.161,5.675,1.7Zm135.058-.044-.274-.95c1.887-.543,3.8-1.116,5.675-1.707l.3.945c-1.887.592-3.8,1.169-5.7,1.713M536.6,626.485c-1.877-.639-3.769-1.31-5.628-1.994l.343-.928c1.849.68,3.736,1.35,5.6,1.986Zm157.781-.044-.319-.935c1.858-.634,3.736-1.3,5.583-1.983l.343.928c-1.854.684-3.741,1.355-5.607,1.99M525.395,622.36c-1.84-.73-3.7-1.493-5.518-2.268l.387-.91c1.814.771,3.663,1.532,5.5,2.258Zm180.144-.036-.365-.92c1.82-.724,3.657-1.478,5.461-2.246l.387.911c-1.811.771-3.655,1.529-5.483,2.255M514.416,617.69c-1.8-.819-3.618-1.672-5.4-2.535l.431-.89c1.773.859,3.583,1.708,5.376,2.524Zm202.033-.01-.41-.9c1.781-.81,3.581-1.655,5.346-2.51l.432.89c-1.773.859-3.58,1.708-5.369,2.521m10.676-5.172-.452-.88c1.74-.9,3.5-1.828,5.22-2.771l.475.869c-1.729.946-3.495,1.881-5.242,2.782m-223.44-.017c-1.754-.9-3.525-1.845-5.265-2.8l.474-.868c1.733.947,3.5,1.882,5.244,2.784Zm233.856-5.673-.5-.857c1.7-.982,3.407-2,5.082-3.022l.517.844c-1.683,1.029-3.4,2.05-5.1,3.034m-244.316-.044c-1.712-.991-3.434-2.016-5.121-3.047l.517-.845c1.678,1.028,3.394,2.048,5.1,3.036Zm254.448-6.147-.538-.832c1.651-1.064,3.31-2.164,4.933-3.266l.556.819c-1.628,1.107-3.294,2.211-4.951,3.28m-264.611-.07c-1.661-1.073-3.33-2.179-4.964-3.292l.558-.818c1.626,1.107,3.289,2.21,4.942,3.279ZM757.5,593.948l-.576-.8c1.592-1.14,3.2-2.318,4.769-3.5l.6.791c-1.579,1.19-3.19,2.373-4.789,3.517m-284.281-.094c-1.606-1.152-3.219-2.338-4.8-3.528l.6-.79c1.57,1.184,3.178,2.367,4.776,3.514ZM766.988,586.8l-.615-.775c1.54-1.22,3.087-2.476,4.6-3.733l.632.761c-1.516,1.262-3.067,2.522-4.614,3.746m-303.277-.115c-1.548-1.229-3.1-2.492-4.618-3.755l.634-.761c1.51,1.259,3.057,2.516,4.6,3.74Zm312.415-7.49-.651-.744c1.48-1.294,2.964-2.623,4.411-3.95l.67.728c-1.453,1.333-2.944,2.669-4.429,3.967m-321.558-.131c-1.488-1.3-2.978-2.639-4.43-3.973l.671-.729c1.445,1.329,2.93,2.661,4.411,3.958Zm330.32-7.909-.688-.713c1.417-1.363,2.836-2.763,4.218-4.16l.7.7c-1.387,1.4-2.811,2.809-4.233,4.177m-339.082-.143c-1.417-1.369-2.841-2.776-4.229-4.182l.7-.694c1.383,1.4,2.8,2.8,4.213,4.164ZM793.254,562.7l-.72-.679c1.347-1.428,2.7-2.9,4.012-4.361l.736.661c-1.32,1.471-2.675,2.943-4.027,4.379m-355.8-.15c-1.35-1.436-2.7-2.909-4.023-4.38l.737-.661c1.314,1.465,2.662,2.933,4.007,4.362ZM801.2,553.841l-.753-.644c1.279-1.495,2.556-3.027,3.8-4.552l.767.625c-1.245,1.532-2.527,3.069-3.811,4.571m-371.69-.149c-1.277-1.5-2.557-3.035-3.8-4.569l.768-.623c1.242,1.529,2.517,3.058,3.79,4.549Zm379.2-9.084-.783-.606c1.2-1.553,2.406-3.146,3.573-4.732l.8.587c-1.173,1.592-2.379,3.191-3.587,4.751m-386.7-.142c-1.208-1.562-2.411-3.158-3.577-4.745l.8-.587c1.163,1.581,2.361,3.171,3.564,4.726Zm393.759-9.447-.812-.567c1.128-1.613,2.252-3.262,3.34-4.9l.825.547c-1.093,1.647-2.221,3.3-3.353,4.922m-400.8-.127c-1.13-1.616-2.254-3.27-3.343-4.912l.825-.547c1.084,1.636,2.2,3.282,3.328,4.892Zm407.383-9.8-.838-.527c1.047-1.664,2.089-3.366,3.1-5.06l.851.506c-1.013,1.7-2.061,3.409-3.111,5.081m-413.947-.1c-1.047-1.665-2.09-3.368-3.1-5.064l.849-.507c1.007,1.69,2.045,3.387,3.087,5.045Zm420.044-10.135-.863-.485c.964-1.712,1.923-3.464,2.849-5.207l.875.464c-.931,1.75-1.894,3.51-2.861,5.228m-426.116-.067c-.968-1.719-1.925-3.471-2.847-5.206l.874-.465c.918,1.73,1.873,3.475,2.836,5.186Zm431.709-10.459-.887-.443c.884-1.765,1.756-3.562,2.592-5.344l.9.422c-.84,1.788-1.716,3.594-2.6,5.365m-437.275-.022c-.88-1.762-1.752-3.557-2.587-5.337l.9-.422c.832,1.775,1.7,3.562,2.578,5.317Zm-5.044-10.735c-.79-1.793-1.572-3.628-2.325-5.454l.915-.377c.748,1.818,1.528,3.646,2.314,5.433Zm447.391-.037-.906-.4c.8-1.805,1.578-3.645,2.328-5.466l.916.376c-.752,1.829-1.538,3.675-2.337,5.489M387.213,482.589c-.707-1.846-1.4-3.723-2.062-5.581l.934-.331c.657,1.85,1.347,3.72,2.052,5.558Zm456.453-.088-.926-.354c.708-1.847,1.4-3.723,2.058-5.577l.933.331c-.661,1.861-1.355,3.745-2.065,5.6M383.229,471.379c-.615-1.872-1.214-3.781-1.785-5.676l.948-.285c.568,1.886,1.166,3.787,1.777,5.653Zm464.429-.128-.941-.308c.614-1.875,1.213-3.784,1.781-5.675l.947.285c-.57,1.9-1.171,3.816-1.788,5.7M379.8,459.986c-.522-1.9-1.028-3.84-1.5-5.757l.961-.238c.473,1.909.978,3.838,1.5,5.733Zm471.288-.151-.955-.262c.519-1.9,1.022-3.825,1.494-5.733l.961.238c-.475,1.917-.98,3.853-1.5,5.757m-474.156-11.4c-.428-1.925-.838-3.884-1.22-5.822l.972-.192c.379,1.93.788,3.883,1.216,5.8Zm477.015-.155-.966-.214c.424-1.918.833-3.87,1.212-5.8l.971.19c-.38,1.938-.789,3.9-1.217,5.823M374.634,436.768c-.332-1.941-.647-3.919-.934-5.876l.98-.143c.285,1.949.6,3.918.93,5.851Zm481.6-.157-.977-.167c.331-1.936.644-3.905.928-5.852l.979.143c-.284,1.954-.6,3.931-.93,5.876M372.909,424.995c-.238-1.957-.455-3.947-.646-5.912l.985-.1c.19,1.958.407,3.94.644,5.89Zm485.045-.157-.983-.119c.236-1.954.452-3.935.641-5.89l.985.095c-.189,1.963-.406,3.952-.643,5.914m-486.2-11.683c-.141-1.963-.262-3.961-.359-5.938l.991-.048c.094,1.969.215,3.958.357,5.914ZM859.1,413l-.989-.071c.142-1.96.262-3.948.355-5.914l.989.047c-.1,1.974-.215,3.972-.356,5.939M371.182,401.272c-.048-1.967-.073-3.969-.075-5.949h.99c0,1.972.026,3.966.075,5.926Zm488.485-.158-.99-.023c.046-1.963.071-3.956.071-5.924v-.332h.99v.334c0,1.976-.024,3.977-.071,5.948M372.163,389.4l-.99-.024c.046-1.974.117-3.974.209-5.944l.99.047c-.093,1.962-.164,3.953-.209,5.921m486.505-.488c-.05-1.971-.124-3.963-.221-5.922l.989-.049c.1,1.966.172,3.967.221,5.945ZM372.723,377.563l-.988-.071c.142-1.97.308-3.965.5-5.927l.986.094c-.189,1.955-.354,3.942-.495,5.9m485.362-.489c-.145-1.966-.315-3.953-.507-5.9l.986-.1c.192,1.959.362,3.952.508,5.927ZM373.854,365.768l-.982-.119c.237-1.965.5-3.949.783-5.9l.979.143c-.281,1.94-.543,3.916-.78,5.873m483.077-.486c-.238-1.949-.5-3.925-.791-5.872l.979-.145c.288,1.956.555,3.939.8,5.9Zm-481.374-11.24-.976-.166c.332-1.949.692-3.918,1.071-5.851l.971.188c-.378,1.927-.735,3.887-1.066,5.829m479.649-.482c-.336-1.943-.7-3.9-1.078-5.826l.971-.192c.381,1.932.746,3.9,1.081,5.849ZM377.83,342.413l-.966-.213c.426-1.929.882-3.877,1.356-5.792l.96.237c-.471,1.908-.925,3.848-1.35,5.768m475.078-.478c-.429-1.919-.887-3.86-1.361-5.765l.96-.24c.478,1.914.937,3.862,1.367,5.79ZM380.671,330.91l-.956-.26c.52-1.9,1.07-3.827,1.638-5.72l.948.284c-.564,1.886-1.114,3.8-1.631,5.7m469.373-.473c-.519-1.89-1.073-3.8-1.643-5.692l.949-.286c.572,1.895,1.127,3.818,1.649,5.716ZM384.072,319.56l-.941-.308c.615-1.884,1.262-3.785,1.923-5.652l.932.331c-.658,1.859-1.3,3.753-1.915,5.63m462.548-.465c-.615-1.867-1.26-3.753-1.92-5.606l.933-.331c.662,1.86,1.311,3.753,1.927,5.628ZM388.04,308.352l-.925-.352c.706-1.85,1.445-3.716,2.2-5.548l.916.376c-.749,1.825-1.486,3.683-2.189,5.524m454.6-.419c-.7-1.833-1.441-3.685-2.191-5.5l.915-.378c.753,1.827,1.495,3.687,2.2,5.528ZM392.551,297.359l-.906-.4c.8-1.812,1.626-3.639,2.466-5.43l.9.42c-.837,1.784-1.663,3.6-2.457,5.409M838.133,297c-.792-1.8-1.616-3.6-2.451-5.374l.9-.421c.838,1.778,1.666,3.594,2.461,5.4ZM397.6,286.607l-.886-.443c.885-1.77,1.8-3.554,2.729-5.3l.874.465c-.922,1.738-1.837,3.514-2.718,5.279m435.5-.295c-.88-1.756-1.792-3.523-2.711-5.252l.874-.464c.923,1.736,1.839,3.51,2.723,5.271ZM403.158,276.117l-.863-.485c.967-1.721,1.971-3.457,2.983-5.158l.85.505c-1.008,1.695-2.007,3.424-2.971,5.138m424.392-.24c-.963-1.708-1.96-3.429-2.965-5.116l.849-.507c1.01,1.694,2.012,3.422,2.978,5.137Zm-418.326-9.96-.838-.526c1.05-1.672,2.136-3.356,3.23-5.005l.825.547c-1.089,1.643-2.171,3.321-3.217,4.985m412.272-.2c-1.049-1.666-2.13-3.337-3.211-4.968l.824-.547c1.087,1.637,2.172,3.315,3.225,4.987Zm-405.719-9.691-.811-.568c1.128-1.617,2.3-3.245,3.468-4.84l.8.586c-1.168,1.588-2.329,3.21-3.454,4.821m399.176-.165c-1.127-1.61-2.288-3.227-3.451-4.807l.8-.588c1.168,1.587,2.333,3.212,3.464,4.827ZM422.8,246.472l-.783-.606c1.2-1.559,2.449-3.128,3.7-4.665l.768.624c-1.242,1.529-2.482,3.094-3.682,4.647m385.136-.139c-1.2-1.556-2.442-3.116-3.68-4.637l.767-.625c1.243,1.527,2.488,3.094,3.7,4.655ZM430.278,237.27l-.753-.643c1.282-1.5,2.6-3.009,3.919-4.479l.737.661c-1.313,1.464-2.626,2.965-3.9,4.461m370.186-.121c-1.277-1.494-2.589-2.993-3.9-4.455l.737-.661c1.318,1.468,2.636,2.973,3.918,4.473Zm-362.275-8.705-.72-.679c1.348-1.433,2.737-2.874,4.128-4.282l.7.7c-1.385,1.4-2.769,2.838-4.113,4.265m354.365-.108c-1.345-1.427-2.729-2.861-4.114-4.262l.7-.7c1.392,1.406,2.78,2.846,4.131,4.279Zm-346.038-8.321-.687-.712c1.419-1.369,2.877-2.741,4.33-4.076l.67.729c-1.448,1.33-2.9,2.7-4.313,4.06m337.708-.1c-1.414-1.363-2.867-2.728-4.316-4.06l.668-.729c1.457,1.337,2.914,2.707,4.335,4.076ZM455.236,212l-.652-.744c1.483-1.3,3-2.6,4.52-3.861l.634.76c-1.509,1.259-3.025,2.553-4.5,3.845m320.256-.1c-1.478-1.291-2.994-2.586-4.51-3.847l.633-.761c1.521,1.266,3.045,2.565,4.528,3.862Zm-311.161-7.477-.614-.776c1.55-1.229,3.132-2.454,4.7-3.636l.6.79c-1.563,1.179-3.138,2.4-4.682,3.622m302.048-.106c-1.544-1.224-3.122-2.443-4.691-3.625l.6-.79c1.576,1.186,3.16,2.411,4.711,3.64Zm-292.6-7.022-.577-.8c1.6-1.146,3.236-2.291,4.869-3.4l.558.818c-1.627,1.108-3.258,2.248-4.851,3.389m283.128-.112c-1.6-1.145-3.237-2.288-4.865-3.394l.557-.818c1.634,1.111,3.278,2.257,4.885,3.407Zm-273.348-6.548-.537-.831c1.659-1.072,3.351-2.135,5.027-3.162l.516.844c-1.671,1.022-3.355,2.082-5.006,3.149m263.537-.121c-1.653-1.066-3.343-2.127-5.025-3.155l.516-.845c1.689,1.031,3.386,2.1,5.047,3.167Zm-253.452-6.053-.5-.856c1.7-.986,3.444-1.966,5.172-2.913l.475.869c-1.722.942-3.455,1.918-5.151,2.9m243.325-.133c-1.707-.986-3.449-1.964-5.176-2.906l.475-.869c1.732.946,3.481,1.927,5.2,2.918Zm-232.956-5.541-.453-.88c1.744-.9,3.53-1.793,5.305-2.655l.432.89c-1.767.858-3.545,1.749-5.285,2.645m222.534-.144c-1.748-.9-3.536-1.791-5.312-2.65l.431-.892c1.784.864,3.579,1.759,5.335,2.662Zm-211.9-5.015-.411-.9c1.79-.816,3.616-1.622,5.426-2.394l.387.91c-1.8.77-3.62,1.571-5.4,2.383m201.213-.156c-1.793-.814-3.622-1.616-5.439-2.389l.387-.91c1.824.775,3.661,1.581,5.461,2.4Zm-190.352-4.477-.367-.919c1.831-.729,3.7-1.446,5.555-2.132l.343.928c-1.847.683-3.708,1.4-5.531,2.123m179.414-.166c-1.831-.725-3.7-1.437-5.552-2.119l.341-.929c1.862.684,3.738,1.4,5.576,2.127Zm-168.3-3.944-.321-.936c1.864-.638,3.765-1.263,5.652-1.857l.3.944c-1.879.592-3.773,1.214-5.628,1.849m157.142-.158c-1.868-.635-3.77-1.255-5.653-1.843l.295-.946c1.891.592,3.8,1.215,5.677,1.852Zm-145.842-3.4-.274-.951c1.9-.547,3.825-1.077,5.736-1.577l.251.958c-1.9.5-3.825,1.027-5.713,1.57m134.512-.141c-1.893-.541-3.815-1.066-5.715-1.558l.247-.958c1.908.5,3.839,1.022,5.74,1.565Zm-123.049-2.859-.228-.963c1.919-.453,3.871-.887,5.807-1.295l.2.969c-1.928.405-3.873.839-5.783,1.289m111.58-.117c-1.916-.447-3.862-.877-5.785-1.276l.2-.969c1.932.4,3.886.833,5.81,1.282Zm-99.985-2.318-.18-.973c1.941-.359,3.914-.7,5.863-1.008l.156.977c-1.941.31-3.906.648-5.839,1m88.384-.093c-1.93-.352-3.9-.685-5.842-.992l.154-.977c1.955.308,3.927.642,5.866,1Zm-76.684-1.773-.132-.981c1.952-.263,3.938-.5,5.9-.721l.108.984c-1.958.215-3.937.458-5.881.719m64.978-.067c-1.947-.259-3.926-.5-5.881-.706l.1-.985c1.963.211,3.951.449,5.908.708Zm-53.2-1.226-.085-.987c1.965-.168,3.962-.314,5.933-.434l.061.988c-1.964.12-3.952.265-5.909.433m41.419-.043c-1.961-.164-3.949-.3-5.909-.421l.058-.987c1.969.115,3.966.257,5.934.421Zm-29.592-.68-.036-.989c1.964-.073,3.961-.123,5.938-.149l.013.99c-1.968.025-3.959.076-5.915.148m17.765-.018c-1.96-.068-3.953-.115-5.924-.135l.011-.99c1.98.021,3.979.067,5.947.136Z" transform="translate(-309.047 -77.218)" fill="#b7e0d8"/>
        <path id="Path_13949" data-name="Path 13949" d="M561.635,637.1c-1.973-.021-3.97-.058-5.934-.117l.03-.99c1.957.058,3.947.1,5.914.117Zm5.937,0-.01-.99c1.961-.02,3.948-.06,5.909-.119l.029.99c-1.966.059-3.961.1-5.928.119m-17.8-.35c-1.967-.1-3.96-.215-5.925-.353l.069-.987c1.957.137,3.944.255,5.9.352Zm29.659-.007-.049-.989c1.957-.1,3.943-.217,5.906-.355l.069.988c-1.968.137-3.962.258-5.926.356m-41.5-.817c-1.961-.177-3.948-.375-5.905-.592l.109-.985c1.951.215,3.931.415,5.884.591Zm53.342-.014-.089-.986c1.951-.176,3.93-.376,5.885-.593l.109.983c-1.961.217-3.948.418-5.906.6m-65.14-1.288c-1.957-.257-3.934-.537-5.877-.831l.148-.978c1.936.293,3.907.571,5.858.827Zm76.938-.021-.13-.982c1.946-.256,3.915-.535,5.857-.83l.148.978c-1.946.3-3.923.577-5.875.834M514.4,632.843c-1.944-.335-3.908-.695-5.839-1.068l.189-.972c1.923.372,3.881.73,5.818,1.064Zm100.409-.028-.168-.974c1.934-.336,3.892-.695,5.818-1.069l.188.972c-1.932.375-3.9.735-5.837,1.071M502.74,630.588c-1.917-.412-3.865-.852-5.789-1.3l.227-.964c1.918.453,3.86.89,5.77,1.3Zm123.717-.036-.208-.968c1.919-.413,3.861-.852,5.769-1.3l.229.964c-1.916.453-3.863.893-5.789,1.308m-135.269-2.693c-1.9-.49-3.831-1.008-5.734-1.541l.268-.952c1.895.53,3.817,1.046,5.713,1.534Zm146.82-.042-.248-.958c1.9-.491,3.823-1.009,5.712-1.537l.267.952c-1.9.531-3.824,1.05-5.731,1.543m-158.253-3.156c-1.9-.573-3.81-1.17-5.687-1.78l.305-.941c1.872.607,3.778,1.2,5.669,1.774Zm169.682-.047-.287-.948c1.874-.567,3.773-1.162,5.645-1.77l.306.941c-1.878.611-3.783,1.208-5.663,1.776M468.42,620.984c-1.866-.648-3.752-1.325-5.606-2.012l.344-.927c1.847.684,3.727,1.358,5.587,2Zm192.308-.04-.326-.934c1.853-.644,3.725-1.317,5.568-2l.344.927c-1.849.685-3.728,1.36-5.586,2.006m-203.476-4.1c-1.842-.726-3.7-1.479-5.518-2.239l.382-.913c1.813.757,3.663,1.507,5.5,2.23Zm214.606-.031-.362-.92c1.817-.717,3.655-1.463,5.459-2.217l.382.914c-1.812.756-3.655,1.505-5.479,2.223M446.266,612.26c-1.8-.8-3.628-1.625-5.419-2.46l.419-.9c1.786.832,3.6,1.657,5.4,2.451Zm236.5,0-.4-.906c1.791-.791,3.6-1.611,5.367-2.437l.419.9c-1.776.829-3.589,1.651-5.386,2.446m10.723-5-.436-.887c1.755-.863,3.527-1.756,5.267-2.655l.454.879c-1.748.9-3.524,1.8-5.285,2.663m-258.011-.03c-1.776-.872-3.562-1.773-5.312-2.679l.454-.879c1.744.9,3.525,1.8,5.294,2.669Zm268.528-5.4-.473-.869c1.719-.933,3.455-1.9,5.158-2.867l.49.86c-1.709.972-3.45,1.941-5.175,2.876m-279.095-.06c-1.73-.939-3.478-1.912-5.2-2.891l.49-.861c1.715.976,3.457,1.945,5.179,2.882Zm289.386-5.8-.508-.849c1.675-1,3.37-2.033,5.04-3.074l.524.84c-1.675,1.045-3.376,2.083-5.056,3.084m-299.719-.09c-1.69-1.01-3.4-2.053-5.073-3.1l.524-.84c1.671,1.044,3.371,2.084,5.057,3.09Zm309.769-6.182-.541-.829c1.644-1.074,3.3-2.176,4.913-3.277l.557.818c-1.621,1.1-3.279,2.211-4.929,3.287m-319.849-.12c-1.651-1.078-3.313-2.19-4.942-3.3l.559-.817c1.623,1.109,3.28,2.217,4.924,3.29Zm329.641-6.556-.574-.807c1.6-1.137,3.206-2.307,4.779-3.473l.59.795c-1.577,1.171-3.19,2.344-4.794,3.485m-339.457-.146c-1.609-1.147-3.224-2.323-4.8-3.5l.591-.794c1.572,1.17,3.182,2.343,4.786,3.486Zm348.976-6.921-.607-.783c1.55-1.2,3.111-2.434,4.636-3.664l.622.769c-1.531,1.236-3.1,2.473-4.651,3.677m-358.507-.17c-1.556-1.208-3.123-2.448-4.657-3.688l.623-.769c1.528,1.235,3.089,2.472,4.64,3.676ZM752.889,568.5l-.637-.758c1.5-1.26,3.007-2.556,4.486-3.851l.651.745c-1.483,1.3-3,2.6-4.5,3.863m-376.971-.19c-1.5-1.266-3.018-2.569-4.5-3.871l.653-.744c1.477,1.3,2.988,2.6,4.487,3.859Zm385.9-7.625-.667-.731c1.446-1.319,2.9-2.674,4.329-4.028l.682.718c-1.432,1.359-2.894,2.719-4.344,4.042m-394.819-.206c-1.449-1.325-2.91-2.687-4.341-4.049l.682-.717c1.426,1.357,2.882,2.715,4.327,4.035Zm403.424-7.965-.7-.7c1.4-1.382,2.8-2.795,4.164-4.2l.709.69c-1.37,1.41-2.776,2.828-4.177,4.214M358.4,552.3c-1.4-1.384-2.8-2.8-4.173-4.218l.71-.69c1.369,1.412,2.768,2.826,4.16,4.206ZM778.689,544l-.723-.675c1.339-1.435,2.682-2.9,3.992-4.366l.737.661c-1.314,1.467-2.662,2.941-4.006,4.38m-428.554-.225c-1.338-1.438-2.685-2.913-4-4.382l.739-.66c1.308,1.464,2.649,2.934,3.984,4.368Zm436.478-8.616-.751-.645c1.285-1.493,2.568-3.015,3.815-4.525l.763.63c-1.25,1.515-2.539,3.042-3.827,4.54m-444.385-.226c-1.282-1.494-2.567-3.02-3.818-4.539l.764-.63c1.248,1.513,2.528,3.035,3.805,4.524ZM794.176,526l-.776-.615c1.22-1.54,2.441-3.113,3.629-4.676l.789.6c-1.193,1.569-2.418,3.148-3.642,4.692m-459.491-.222c-1.214-1.535-2.437-3.113-3.631-4.686l.788-.6c1.191,1.569,2.408,3.14,3.618,4.672Zm466.68-9.236-.8-.583c1.159-1.59,2.316-3.211,3.438-4.82l.812.566c-1.128,1.613-2.288,3.242-3.45,4.836m-473.845-.209c-1.159-1.594-2.316-3.218-3.438-4.829l.811-.566c1.119,1.6,2.272,3.223,3.427,4.812ZM808.167,506.8l-.823-.55c1.1-1.638,2.187-3.306,3.242-4.956l.834.533c-1.059,1.656-2.155,3.33-3.253,4.974m-487.426-.189c-1.094-1.64-2.183-3.309-3.238-4.961l.833-.534c1.053,1.647,2.138,3.311,3.228,4.945Zm493.832-9.825-.846-.517c1.031-1.687,2.053-3.4,3.038-5.087l.856.5c-.989,1.694-2.016,3.41-3.049,5.1m-500.208-.162c-1.023-1.676-2.045-3.387-3.034-5.085l.855-.5c.987,1.693,2,3.4,3.024,5.068Zm506.2-10.107-.865-.482c.957-1.719,1.909-3.472,2.829-5.207l.876.463c-.924,1.742-1.879,3.5-2.84,5.226M308.4,486.4c-.955-1.714-1.9-3.466-2.826-5.2l.875-.463c.917,1.731,1.865,3.475,2.815,5.186ZM826.14,476.012l-.882-.446c.888-1.759,1.768-3.55,2.616-5.32l.893.428c-.851,1.776-1.735,3.574-2.627,5.338m-523.283-.076c-.888-1.761-1.766-3.548-2.61-5.31l.892-.427c.842,1.756,1.716,3.537,2.6,5.292Zm528.427-10.654-.9-.41c.816-1.8,1.623-3.622,2.4-5.425l.91.391c-.779,1.808-1.588,3.64-2.407,5.443m-533.539-.017c-.813-1.786-1.616-3.607-2.392-5.41l.909-.391c.773,1.8,1.575,3.611,2.383,5.391ZM293.071,454.4c-.741-1.827-1.474-3.684-2.178-5.522l.926-.353c.7,1.831,1.431,3.682,2.17,5.5Zm542.916-.054-.919-.372c.743-1.829,1.475-3.686,2.177-5.521l.924.354c-.7,1.84-1.437,3.7-2.182,5.539M288.829,443.314c-.666-1.856-1.322-3.742-1.95-5.607l.938-.315c.625,1.858,1.28,3.739,1.944,5.587Zm551.41-.092-.931-.335c.666-1.855,1.322-3.742,1.948-5.607l.939.315c-.629,1.872-1.287,3.765-1.956,5.627m-555.2-11.161c-.593-1.888-1.171-3.8-1.72-5.681l.951-.276c.546,1.875,1.123,3.78,1.713,5.662Zm558.991-.133-.944-.3c.587-1.873,1.161-3.777,1.711-5.662l.95.275c-.55,1.892-1.128,3.8-1.717,5.683M281.721,420.666c-.513-1.9-1.013-3.834-1.487-5.746l.961-.238c.472,1.906.971,3.833,1.482,5.727Zm565.631-.136-.955-.257c.509-1.89,1.006-3.817,1.478-5.728l.961.238c-.474,1.917-.973,3.851-1.484,5.747M278.864,409.144c-.433-1.914-.853-3.866-1.25-5.8l.969-.2c.4,1.93.816,3.875,1.248,5.784Zm571.338-.138-.967-.217c.433-1.92.851-3.865,1.244-5.784l.97.2c-.394,1.924-.814,3.877-1.247,5.8m-573.72-11.489c-.357-1.941-.7-3.908-1.013-5.849l.976-.158c.316,1.935.656,3.894,1.011,5.828Zm576.1-.141-.974-.178c.355-1.933.693-3.895,1.006-5.828l.978.158c-.315,1.942-.656,3.91-1.01,5.849M274.574,385.8c-.276-1.953-.537-3.932-.773-5.884l.983-.119c.235,1.944.495,3.918.772,5.865Zm579.907-.14-.98-.139c.275-1.948.534-3.921.77-5.865l.982.119c-.236,1.951-.5,3.93-.772,5.885M273.144,374.016c-.2-1.96-.379-3.948-.537-5.911l.987-.08c.158,1.956.338,3.939.535,5.891Zm582.761-.142-.985-.1c.2-1.948.375-3.93.533-5.89l.987.079c-.158,1.967-.338,3.957-.534,5.91M272.19,362.184c-.118-1.961-.219-3.955-.3-5.928l.989-.04c.079,1.965.178,3.954.3,5.909Zm584.663-.142-.988-.06c.118-1.95.217-3.938.294-5.908l.99.039c-.08,1.976-.179,3.97-.3,5.928M271.712,350.337c-.04-1.973-.061-3.97-.062-5.936h.99c0,1.96.022,3.95.062,5.916Zm585.615-.154-.99-.021c.039-1.958.059-3.947.059-5.915v-.306h.989v.3c0,1.976-.02,3.972-.058,5.937M272.7,338.486l-.989-.02c.038-1.969.1-3.965.173-5.932l.99.04c-.077,1.96-.137,3.949-.174,5.912m583.635-.46c-.041-1.955-.1-3.94-.182-5.9l.989-.041c.08,1.967.141,3.959.182,5.92Zm-583.17-11.362-.989-.059c.117-1.966.255-3.957.412-5.92l.986.078c-.155,1.956-.293,3.941-.409,5.9m582.687-.446c-.12-1.963-.262-3.948-.419-5.9l.987-.079c.159,1.959.3,3.95.42,5.92ZM274.1,314.872l-.985-.1c.2-1.964.414-3.949.65-5.9l.983.119c-.235,1.943-.453,3.921-.648,5.879m580.791-.446c-.2-1.948-.418-3.926-.656-5.878l.982-.121c.239,1.959.461,3.943.659,5.9Zm-579.377-11.3-.98-.138c.274-1.946.575-3.921.889-5.869l.978.159c-.315,1.941-.612,3.909-.886,5.847m577.945-.443c-.276-1.94-.577-3.906-.894-5.846l.978-.16c.318,1.947.618,3.921.9,5.867ZM277.4,291.449l-.975-.178c.356-1.939.734-3.9,1.127-5.828l.97.2c-.392,1.922-.77,3.876-1.122,5.808m574.149-.44c-.357-1.934-.738-3.887-1.131-5.806l.969-.2c.394,1.925.777,3.885,1.135,5.826ZM279.766,279.857l-.966-.218c.434-1.922.891-3.865,1.363-5.777l.961.238c-.47,1.9-.927,3.842-1.358,5.757m569.405-.436c-.435-1.919-.894-3.855-1.367-5.755l.962-.239c.472,1.907.935,3.85,1.371,5.776ZM282.6,268.371l-.956-.256c.511-1.9,1.048-3.823,1.6-5.717l.952.276c-.547,1.886-1.084,3.8-1.592,5.7m563.721-.432c-.514-1.9-1.052-3.814-1.6-5.695l.951-.277c.551,1.887,1.091,3.809,1.607,5.714ZM285.9,257.01l-.944-.295c.59-1.887,1.207-3.795,1.837-5.669l.938.315c-.627,1.868-1.242,3.768-1.831,5.649m557.1-.427c-.587-1.87-1.2-3.763-1.832-5.624l.937-.316c.629,1.867,1.249,3.767,1.839,5.644ZM289.677,245.752l-.932-.334c.667-1.863,1.363-3.742,2.066-5.586l.925.353c-.7,1.837-1.394,3.71-2.059,5.566m549.547-.378c-.665-1.846-1.358-3.711-2.061-5.546l.926-.354c.7,1.84,1.4,3.713,2.066,5.564ZM293.908,234.663l-.916-.371c.738-1.823,1.509-3.672,2.292-5.494l.91.391c-.78,1.816-1.549,3.658-2.286,5.475m541.083-.337c-.74-1.816-1.505-3.645-2.276-5.436l.909-.392c.775,1.8,1.542,3.634,2.283,5.455Zm-536.4-10.565-.9-.409c.813-1.792,1.659-3.607,2.514-5.393l.892.427c-.851,1.78-1.694,3.589-2.5,5.375m531.738-.261c-.811-1.782-1.651-3.58-2.5-5.342l.893-.428c.848,1.768,1.69,3.573,2.5,5.359ZM303.709,213.065l-.883-.446c.887-1.761,1.806-3.538,2.731-5.284l.875.463c-.922,1.74-1.839,3.512-2.723,5.266m521.517-.2c-.884-1.75-1.8-3.512-2.712-5.239l.875-.465c.919,1.733,1.834,3.5,2.721,5.257ZM309.26,202.59l-.866-.481c.96-1.726,1.95-3.465,2.944-5.167l.855.5c-.991,1.7-1.978,3.43-2.933,5.149m510.436-.145c-.95-1.707-1.933-3.431-2.923-5.126l.854-.5c.994,1.7,1.981,3.431,2.934,5.144ZM315.229,192.352l-.846-.516c1.029-1.683,2.088-3.379,3.15-5.042l.834.533c-1.058,1.656-2.114,3.347-3.138,5.024m498.517-.1c-1.017-1.666-2.07-3.35-3.129-5.006l.834-.533c1.062,1.661,2.118,3.351,3.139,5.023Zm-492.139-9.882-.823-.549c1.1-1.641,2.222-3.292,3.349-4.909l.813.567c-1.125,1.611-2.248,3.256-3.339,4.891m485.78-.065c-1.09-1.632-2.21-3.272-3.33-4.878l.812-.566c1.124,1.611,2.249,3.258,3.342,4.894Zm-479-9.649-.8-.583c1.16-1.593,2.353-3.2,3.545-4.767l.787.6c-1.187,1.564-2.375,3.163-3.531,4.751m472.245-.039c-1.153-1.584-2.339-3.179-3.525-4.74l.788-.6c1.19,1.568,2.38,3.168,3.536,4.757Zm-465.085-9.39-.777-.614c1.224-1.545,2.48-3.1,3.735-4.62l.763.631c-1.251,1.514-2.5,3.063-3.72,4.6m457.939-.02c-1.216-1.535-2.465-3.081-3.715-4.6l.763-.629c1.254,1.52,2.508,3.071,3.727,4.61Zm-450.407-9.111-.75-.645c1.283-1.493,2.6-2.995,3.915-4.463l.738.661c-1.31,1.463-2.623,2.959-3.9,4.447m442.885-.006c-1.28-1.488-2.591-2.982-3.9-4.444l.738-.661c1.312,1.467,2.628,2.967,3.911,4.46Zm-7.888-8.81c-1.342-1.439-2.712-2.881-4.076-4.285l.711-.689c1.367,1.409,2.742,2.855,4.089,4.3Zm-427.105,0-.723-.675c1.341-1.438,2.717-2.885,4.09-4.3l.71.69c-1.369,1.41-2.741,2.852-4.077,4.286m418.869-8.487c-1.4-1.381-2.824-2.766-4.246-4.118l.682-.718c1.427,1.357,2.86,2.747,4.26,4.132Zm-410.63,0-.7-.7c1.4-1.385,2.831-2.776,4.258-4.131l.681.717c-1.421,1.352-2.85,2.738-4.244,4.118m8.572-8.148-.668-.731c1.453-1.327,2.94-2.658,4.421-3.956l.652.744c-1.475,1.294-2.957,2.62-4.405,3.943m393.484,0c-1.454-1.327-2.937-2.656-4.409-3.945l.653-.745c1.476,1.3,2.965,2.626,4.425,3.959Zm-384.6-7.795-.638-.757c1.5-1.264,3.042-2.534,4.576-3.772l.623.77c-1.529,1.234-3.063,2.5-4.561,3.759m375.7-.007c-1.5-1.263-3.037-2.53-4.566-3.766l.622-.769c1.535,1.24,3.076,2.511,4.583,3.778Zm-366.5-7.42-.606-.783c1.557-1.206,3.146-2.413,4.722-3.584l.59.794c-1.57,1.168-3.154,2.37-4.706,3.573m357.294-.018c-1.557-1.207-3.144-2.412-4.715-3.579l.59-.795c1.577,1.172,3.169,2.381,4.732,3.592ZM395.342,106.37l-.574-.806c1.6-1.142,3.238-2.282,4.86-3.39l.558.817c-1.617,1.1-3.248,2.241-4.845,3.379m338.308-.032c-1.6-1.138-3.232-2.278-4.858-3.387l.558-.817c1.631,1.113,3.271,2.256,4.875,3.4ZM405.1,99.713l-.541-.828c1.646-1.075,3.326-2.149,4.992-3.19l.524.84c-1.66,1.037-3.335,2.107-4.975,3.179m318.768-.049c-1.643-1.073-3.324-2.145-4.993-3.187l.524-.84c1.676,1.046,3.361,2.122,5.011,3.2ZM415.11,93.457l-.507-.85c1.692-1.011,3.412-2.014,5.115-2.983l.49.859c-1.7.967-3.411,1.967-5.1,2.975m298.7-.067c-1.687-1.006-3.409-2.01-5.119-2.983l.489-.86c1.716.977,3.444,1.984,5.137,2.994ZM425.363,87.613l-.471-.869c1.728-.939,3.488-1.873,5.228-2.774l.455.879c-1.735.9-3.49,1.828-5.212,2.764m278.151-.085c-1.729-.938-3.492-1.871-5.239-2.773l.455-.88c1.753.906,3.522,1.843,5.256,2.784ZM435.841,82.191,435.4,81.3c1.764-.868,3.558-1.728,5.336-2.558l.418.9c-1.771.826-3.56,1.684-5.318,2.548m257.14-.1c-1.767-.867-3.567-1.728-5.349-2.559l.417-.9c1.789.833,3.6,1.7,5.368,2.567ZM446.526,77.2l-.4-.905c1.8-.8,3.626-1.582,5.434-2.338l.382.913c-1.8.753-3.622,1.538-5.414,2.33m235.7-.124c-1.8-.793-3.634-1.58-5.452-2.338l.381-.914c1.824.76,3.665,1.55,5.47,2.347ZM457.4,72.653l-.364-.921c1.838-.725,3.7-1.44,5.543-2.123l.345.928c-1.834.681-3.692,1.392-5.524,2.115m213.88-.141c-1.837-.722-3.7-1.434-5.545-2.115l.343-.929c1.848.684,3.72,1.4,5.564,2.122ZM468.488,68.534l-.325-.934c1.862-.648,3.756-1.286,5.626-1.9l.307.941c-1.864.607-3.75,1.242-5.607,1.888m191.657-.14c-1.868-.647-3.762-1.282-5.63-1.886l.305-.943c1.874.608,3.774,1.244,5.648,1.894ZM479.738,64.873l-.288-.948c1.889-.572,3.807-1.133,5.7-1.663l.268.953c-1.885.529-3.8,1.086-5.679,1.657m169.108-.137c-1.88-.566-3.792-1.121-5.68-1.648l.265-.954c1.9.529,3.814,1.085,5.7,1.653ZM491.127,61.674l-.248-.958c1.915-.5,3.854-.976,5.761-1.429l.229.963c-1.9.451-3.834.93-5.742,1.425m146.325-.118c-1.9-.49-3.837-.966-5.744-1.414l.227-.964c1.914.451,3.854.928,5.763,1.421ZM502.637,58.942l-.208-.967c1.922-.415,3.878-.817,5.814-1.193l.189.971c-1.93.375-3.88.775-5.794,1.188m123.3-.1c-1.911-.41-3.861-.807-5.8-1.18l.188-.972c1.941.375,3.9.773,5.816,1.184ZM514.249,56.683l-.169-.976c1.937-.336,3.907-.657,5.858-.956l.15.979c-1.944.3-3.909.618-5.839.953M614.321,56.6c-1.932-.333-3.9-.65-5.841-.943l.148-.979c1.951.295,3.922.613,5.859.947ZM525.943,54.9l-.129-.981c1.953-.258,3.934-.5,5.891-.718l.11.984c-1.951.218-3.927.458-5.873.715m76.68-.062c-1.946-.254-3.922-.491-5.873-.705l.108-.984c1.958.215,3.94.454,5.893.708ZM537.7,53.585l-.09-.986c1.965-.179,3.957-.34,5.916-.478l.069.987c-1.952.139-3.937.3-5.895.477m53.163-.043c-1.962-.175-3.947-.332-5.9-.467l.067-.988c1.958.135,3.948.293,5.917.469ZM549.5,52.749l-.051-.989c1.967-.1,3.963-.181,5.931-.241l.031.99c-1.963.06-3.951.14-5.911.24m29.561-.023c-1.957-.1-3.945-.173-5.912-.23l.029-.99c1.973.057,3.969.136,5.93.231Zm-17.742-.338-.011-.99c1.976-.021,3.959-.022,5.935,0l-.007.989q-2.958-.026-5.917.005" transform="translate(-258.143 -26.3)" fill="#b7e0d8"/>
        <path id="Path_13950" data-name="Path 13950" d="M588.105,638.2a269.534,269.534,0,1,1,105.24-21.247A268.667,268.667,0,0,1,588.105,638.2m0-540.244c-148.809,0-269.875,121.065-269.875,269.875S439.3,637.709,588.105,637.709,857.98,516.644,857.98,367.835,736.915,97.96,588.105,97.96" transform="translate(-281.731 -49.887)" fill="#b7e0d8"/>
      </g>
    </g>
    <g id="Group_3368" data-name="Group 3368" transform="translate(0 0.002)">
      <g id="Group_3367" data-name="Group 3367" clip-path="url(#clip-path-2)">
        <path id="Path_13951" data-name="Path 13951" d="M1332.808,612.259l-31.672,26.457a7.2,7.2,0,0,1-4.234,1.6,5.644,5.644,0,0,1-4.239-1.307L1266.62,615.95a119.369,119.369,0,0,1-17.63,5.281q-2.969,10.952-6.939,31.71a7.206,7.206,0,0,1-2.375,4.406,6.2,6.2,0,0,1-4.358,1.457q-8.5.561-27.207-1.255t-21.332-4.947a9.093,9.093,0,0,1-1.815-4.782l-1.034-32.563a105.912,105.912,0,0,1-16.269-8.453q-21.306,13.92-29.994,18.027-4.83,2.338-8.283-1.8l-26.457-31.674a7.022,7.022,0,0,1-1.707-4.51,5.5,5.5,0,0,1,1.7-4.2l22.916-25.921a114.176,114.176,0,0,1-5.447-17.254l-32.073-7.364a6.7,6.7,0,0,1-4.263-2.494,6.405,6.405,0,0,1-1.41-4.88q1.255-31.565,4.309-43.562a7.264,7.264,0,0,1,2.449-3.741,7.161,7.161,0,0,1,4.235-1.6q4.78-.361,15.563-.649t16.5-.7a91.9,91.9,0,0,1,9.239-17.646l-17.955-29.328a5.858,5.858,0,0,1-.721-4.488,7.026,7.026,0,0,1,2.4-3.941l31.676-26.455a7.158,7.158,0,0,1,4.234-1.6,5.612,5.612,0,0,1,4.119,1.163l26.164,23.2a91.668,91.668,0,0,1,17.774-5.4q3.365-12.5,6.935-31.713a7.019,7.019,0,0,1,2.234-4.288,7.863,7.863,0,0,1,4.354-1.455q8.237-.581,27.079,1.242t21.46,4.962a7.924,7.924,0,0,1,1.673,4.9l1.179,32.439a106.194,106.194,0,0,1,16.265,8.456q21.305-13.921,29.994-18.027,4.83-2.335,8.287,1.8l26.452,31.674a7.016,7.016,0,0,1,1.711,4.508,5.511,5.511,0,0,1-1.7,4.2l-22.914,25.921a115.812,115.812,0,0,1,5.446,17.25l32.187,7.51a6.032,6.032,0,0,1,4.143,2.354,7.175,7.175,0,0,1,1.554,4.756q-1.607,32.591-4.592,43.8a6.034,6.034,0,0,1-2.3,3.622,7.164,7.164,0,0,1-4.234,1.6q-4.787.365-15.568.65t-16.491.7a112.234,112.234,0,0,1-9.1,17.528l17.816,29.448a5.872,5.872,0,0,1,.717,4.487,7.022,7.022,0,0,1-2.4,3.942m-111.329-49.194a47.572,47.572,0,1,0-32.27-16.887,45.856,45.856,0,0,0,32.27,16.887" transform="translate(-554.099 -190.6)" fill="#69bc46"/>
        <path id="Path_13952" data-name="Path 13952" d="M375.941,1069.379v-14.342l1.922-12.494,1.442,9.77v5.606l1.6-2.883,1.441,2.724v-6.407l2.563-8.81,1.6,10.892,1.762.321V1043.5h2.083v-2.563h4.966v2.4l1.6.16v8.81l3.685-.32v-6.567h2.722v-19.682l1.121-.981v-2.083c1.122-.159.641-2.883.641-2.883,1.121-.48,1.6-12.974,1.6-12.974L408.136,1019l1.281.641-.64,3.684.64,3.684,1.6,1.121-1.922,17.3,1.922.8v8.97l2.723.16v-8.969H415.5v-4.325h3.684v4.164h2.242l-1.282,10.252,2.563-1.6v-2.884l1.922-.321-1.762-34.117,3.2-6.087v-5.606l2.4-1.762.8-10.892c1.282-.16,2.083-14.415,2.083-14.415v13.455l1.922.32v10.892l2.723,3.044v4l2.563,1.281-.961,40.525,1.922.641-.8,3.844,4.325,2.563,1.442-36.2,3.043,3.524v-4.645l2.884-.961,2.4-24.347-1.121,23.706,5.767-7.208-1.441,33.317,1.441-.16s.64-5.127,1.121-5.127a16.513,16.513,0,0,0,2.563-.8l.641-11.373,4.965-2.4,2.563-10.892,1.466-1.442v41.807l8.785-5.126,2.082,1.6v-4.324l2.243-.32v-15.057l3.043-1.121v-2.563l3.2-1.6,5.286,1.762v2.563l1.6,1.761v19.062H498.8l.962-57.184,3.684-.64h7.689v50.3l3.364-.32v-16.018l3.2-5.766,2.242,5.126v16.338l5.446-.961.8-8.969a4.167,4.167,0,0,1,4.806-4.165c4.8.32,6.727,2.242,6.727,5.766v13.936l4.806.32v3.524l5.446-.64,5.927,6.247-1.762,9.7Z" transform="translate(-192.413 -500.965)" fill="#64bfaf"/>
        <path id="Path_13953" data-name="Path 13953" d="M964.44,1069.379v-14.342l1.921-12.494,1.442,9.77v5.606l1.6-2.883,1.442,2.724v-6.407l2.563-8.81,1.6,10.892,1.762.321V1043.5h2.082v-2.563h4.966v2.4l1.6.16v8.81l3.684-.32v-6.567h2.723v-19.682l1.121-.981v-2.083c1.121-.159.641-2.883.641-2.883,1.121-.48,1.6-12.974,1.6-12.974L996.635,1019l1.281.641-.64,3.684.64,3.684,1.6,1.121-1.922,17.3,1.922.8v8.97l2.723.16v-8.969H1004v-4.325h3.684v4.164h2.242l-1.281,10.252,2.563-1.6v-2.884l1.922-.321-1.762-34.117,3.2-6.087v-5.606l2.4-1.762.8-10.892c1.281-.16,2.083-14.415,2.083-14.415v13.455l1.922.32v10.892l2.722,3.044v4l2.563,1.281-.961,40.525,1.922.641-.8,3.844,4.325,2.563,1.442-36.2,3.044,3.524v-4.645l2.883-.961,2.4-24.347-1.121,23.706,5.766-7.208-1.441,33.317,1.441-.16s.641-5.127,1.122-5.127a16.536,16.536,0,0,0,2.563-.8l.641-11.373,4.966-2.4,2.563-10.892,1.466-1.442v41.807l8.785-5.126,2.082,1.6v-4.324l2.243-.32v-15.057l3.043-1.121v-2.563l3.2-1.6,5.286,1.762v2.563l1.6,1.761v19.062h1.762l.961-57.184,3.684-.64h7.689v50.3l3.363-.32v-16.018l3.2-5.766,2.242,5.126v16.338l5.447-.961.8-8.969a4.167,4.167,0,0,1,4.805-4.165c4.8.32,6.727,2.242,6.727,5.766v13.936l4.8.32v3.524l5.447-.64,5.927,6.247-1.762,9.7Z" transform="translate(-493.617 -500.965)" fill="#64bfaf"/>
        <path id="Path_13954" data-name="Path 13954" d="M1460.558,521.465a1.359,1.359,0,0,0,1.36-1.36,10.594,10.594,0,1,1,11.547,10.548v-5.792l-7.034,7.032,7.034,7.034v-5.547a13.311,13.311,0,1,0-14.264-13.275,1.358,1.358,0,0,0,1.357,1.36" transform="translate(-746.845 -259.388)" fill="#efe352"/>
        <g id="Group_3383" data-name="Group 3383" transform="translate(605.69 90.728)">
          <path id="Path_13955" data-name="Path 13955" d="M1322.474,237.836l-37.34-28.035a1.885,1.885,0,0,1-.376-2.638l15.434-20.556a1.884,1.884,0,0,1,2.637-.375l37.341,28.035a1.882,1.882,0,0,1,.375,2.638l-15.433,20.556a1.885,1.885,0,0,1-2.638.376" transform="translate(-1263.058 -185.853)" fill="#8d8379"/>
          <rect id="Rectangle_1457" data-name="Rectangle 1457" width="7.815" height="50.462" transform="matrix(0.6, -0.8, 0.8, 0.6, 30.959, 8.977)" fill="#4f4943"/>
          <path id="Path_13956" data-name="Path 13956" d="M1278.8,245.736l-37.34-28.035a1.884,1.884,0,0,1-.376-2.638l15.435-20.557a1.883,1.883,0,0,1,2.637-.375l37.341,28.035a1.884,1.884,0,0,1,.376,2.638l-15.434,20.557a1.884,1.884,0,0,1-2.638.375" transform="translate(-1240.701 -189.897)" fill="#c2bab0"/>
          <path id="Path_13957" data-name="Path 13957" d="M1320.6,246.281a3.908,3.908,0,1,1-.779-5.471,3.907,3.907,0,0,1,.779,5.471" transform="translate(-1277.996 -213.581)" fill="#8fc159"/>
          <path id="Path_13958" data-name="Path 13958" d="M1329.379,252.872a3.907,3.907,0,1,1-.778-5.472,3.907,3.907,0,0,1,.778,5.472" transform="translate(-1282.49 -216.954)" fill="#6257a1"/>
          <rect id="Rectangle_1458" data-name="Rectangle 1458" width="7.815" height="13.694" transform="translate(13.385 15.65) rotate(-53.103)" fill="#fff"/>
          <rect id="Rectangle_1459" data-name="Rectangle 1459" width="2.028" height="8.768" transform="translate(8.061 22.742) rotate(-53.103)" fill="#fff"/>
          <rect id="Rectangle_1460" data-name="Rectangle 1460" width="2.028" height="8.767" transform="translate(16.593 29.146) rotate(-53.101)" fill="#fff"/>
          <rect id="Rectangle_1461" data-name="Rectangle 1461" width="2.027" height="8.767" transform="matrix(0.6, -0.8, 0.8, 0.6, 5.329, 26.38)" fill="#fff"/>
          <rect id="Rectangle_1462" data-name="Rectangle 1462" width="2.027" height="8.768" transform="matrix(0.6, -0.8, 0.8, 0.6, 13.86, 32.784)" fill="#fff"/>
          <rect id="Rectangle_1463" data-name="Rectangle 1463" width="2.027" height="8.768" transform="matrix(0.6, -0.8, 0.8, 0.6, 25.123, 35.551)" fill="#fff"/>
        </g>
        <rect id="Rectangle_1464" data-name="Rectangle 1464" width="2.028" height="8.768" transform="translate(639.343 132.685) rotate(-53.1)" fill="#fff"/>
        <path id="Path_13959" data-name="Path 13959" d="M268.528,452.978s2.147,15.452,16.909,16.909c-14.762,1.457-16.909,16.908-16.909,16.908s-2.147-15.451-16.909-16.908c14.762-1.458,16.909-16.909,16.909-16.909" transform="translate(-128.783 -231.844)" fill="#fff"/>
        <path id="Path_13960" data-name="Path 13960" d="M246.271,501.268s1.191,8.573,9.382,9.382c-8.191.808-9.382,9.382-9.382,9.382s-1.191-8.573-9.382-9.382c8.191-.809,9.382-9.382,9.382-9.382" transform="translate(-121.244 -256.56)" fill="#fff"/>
        <path id="Path_13961" data-name="Path 13961" d="M483.353,224.629a1.787,1.787,0,0,1-.541,1.313L468.835,239.92l-2.625,2.626a1.865,1.865,0,0,1-2.626,0l-2.626-2.626-6.989-6.989a1.864,1.864,0,0,1,0-2.625l2.626-2.626a1.863,1.863,0,0,1,2.625,0l5.676,5.7,12.665-12.685a1.865,1.865,0,0,1,2.626,0l2.625,2.626a1.787,1.787,0,0,1,.541,1.313" transform="translate(-232.072 -112.679)" fill="#8abb2a"/>
        <path id="Path_13962" data-name="Path 13962" d="M839.094,342.053H360.5a21.379,21.379,0,0,0-21.379,21.379V622.007H860.473V363.432a21.379,21.379,0,0,0-21.379-21.379" transform="translate(-173.57 -175.071)" fill="#36322d"/>
        <rect id="Rectangle_1465" data-name="Rectangle 1465" width="485.491" height="237.936" transform="translate(182.643 187.837)" fill="#f2f2f2"/>
        <path id="Path_13963" data-name="Path 13963" d="M339.125,939.03A21.378,21.378,0,0,0,360.5,960.408h478.59a21.379,21.379,0,0,0,21.379-21.379V915.515H339.125Z" transform="translate(-173.57 -468.579)" fill="#f2f2f2"/>
        <path id="Path_13964" data-name="Path 13964" d="M840.537,1048.869v-41.394H736.64v41.394c0,12.828-27.639,25.559-27.639,30.188a8.38,8.38,0,0,0,8.381,8.381H858.823a8.381,8.381,0,0,0,8.381-8.381c0-4.629-26.667-18.216-26.667-30.188" transform="translate(-362.879 -515.646)" fill="#f2f2f2"/>
        <g id="Group_3363" data-name="Group 3363" transform="translate(373.761 491.83)" opacity="0.2" style="mix-blend-mode: multiply;isolation: isolate">
          <g id="Group_3362" data-name="Group 3362">
            <g id="Group_3361" data-name="Group 3361" clip-path="url(#clip-path-5)">
              <rect id="Rectangle_1466" data-name="Rectangle 1466" width="103.897" height="13.468" transform="translate(0)" fill="#1a1818"/>
            </g>
          </g>
        </g>
        <path id="Path_13965" data-name="Path 13965" d="M697,605.567v-6.243h-99.79L554.46,556.572l-.079.11.079-.328H533.392l-42.538-42.839H441.3a14.495,14.495,0,1,0,.014,6.242h46.642l36.6,36.6H505a14.5,14.5,0,1,0,.013,6.242h46.642l25.3,25.3H470.365a14.495,14.495,0,1,0,.015,6.242H583.2l11.343,11.344.029-.043-.029.132h27.313L585.122,642.3H538.481a14.509,14.509,0,1,0-.015,6.243h49.566l-.067-.259,42.714-42.713ZM427.156,524.921a8.259,8.259,0,1,1,8.259-8.259,8.268,8.268,0,0,1-8.259,8.259m63.7,42.839a8.259,8.259,0,1,1,8.259-8.259,8.268,8.268,0,0,1-8.259,8.259M456.218,599.3a8.258,8.258,0,1,1,8.258-8.258,8.268,8.268,0,0,1-8.258,8.258m68.1,54.351a8.259,8.259,0,1,1,8.258-8.258,8.268,8.268,0,0,1-8.258,8.258" transform="translate(-211.204 -257.017)" fill="#d1d0d0"/>
        <path id="Path_13966" data-name="Path 13966" d="M748.183,486.676v6.243h99.79l42.752,42.753.079-.11-.079.328h21.069l42.538,42.839h49.55a14.495,14.495,0,1,0-.014-6.242H957.227l-36.6-36.6h19.554a14.5,14.5,0,1,0-.012-6.242H893.529l-25.3-25.3H974.821a14.5,14.5,0,1,0-.015-6.242H861.991l-11.343-11.344-.029.043.029-.132H823.334l36.729-36.728h46.641a14.507,14.507,0,1,0,.014-6.243H857.153l.068.258-42.714,42.713Zm269.847,80.647a8.259,8.259,0,1,1-8.258,8.258,8.268,8.268,0,0,1,8.258-8.258m-63.7-42.839a8.259,8.259,0,1,1-8.26,8.259,8.268,8.268,0,0,1,8.26-8.259m34.634-31.538a8.258,8.258,0,1,1-8.258,8.258,8.268,8.268,0,0,1,8.258-8.258m-68.1-54.351a8.259,8.259,0,1,1-8.258,8.258,8.268,8.268,0,0,1,8.258-8.258" transform="translate(-382.933 -221.287)" fill="#d1d0d0"/>
        <path id="Path_13970" data-name="Path 13970" d="M355.867,580.622H224.7a10.859,10.859,0,0,0-10.859,10.859V856.23A10.858,10.858,0,0,0,224.7,867.088H355.867a10.858,10.858,0,0,0,10.858-10.859V591.48a10.858,10.858,0,0,0-10.858-10.858" transform="translate(-109.448 -297.175)" fill="#f2f2f2"/>
        <path id="Path_14024" data-name="Path 14024" d="M0,0H132.447V260.291H0Z" transform="translate(114.612 296.535)" fill="#a4ce4c"/>
        <rect id="Rectangle_1476" data-name="Rectangle 1476" width="132.447" height="34.016" transform="translate(114.612 522.81)" fill="#0d3455"/>
        <path id="Path_13971" data-name="Path 13971" d="M367.979,594.793H331.293a1.487,1.487,0,0,1,0-2.975h36.686a1.487,1.487,0,0,1,0,2.975" transform="translate(-168.801 -302.905)" fill="#d1d0d0"/>
        <path id="Path_13972" data-name="Path 13972" d="M313.684,591.746a2.974,2.974,0,1,1-2.975-2.974,2.975,2.975,0,0,1,2.975,2.974" transform="translate(-157.504 -301.346)" fill="#d1d0d0"/>
        <path id="Path_13973" data-name="Path 13973" d="M300.244,593.288a1.5,1.5,0,1,1-1.5-1.5,1.5,1.5,0,0,1,1.5,1.5" transform="translate(-152.131 -302.887)" fill="#d1d0d0"/>
        <path id="Path_13974" data-name="Path 13974" d="M278.89,1102.556l3.06-1.766,3.06-1.767v7.067l-3.06-1.766Z" transform="translate(-142.741 -562.501)" fill="none" stroke="#fff" stroke-miterlimit="10" stroke-width="2.298"/>
        <path id="Path_13975" data-name="Path 13975" d="M367.6,1099.022l-4.08,3.534v3.533h8.16v-3.533Z" transform="translate(-186.054 -562.501)" fill="none" stroke="#fff" stroke-miterlimit="10" stroke-width="2.298"/>
        <path id="Path_13976" data-name="Path 13976" d="M451.018,1106.089h0a3.533,3.533,0,1,1,3.534-3.533A3.534,3.534,0,0,1,451.018,1106.089Z" transform="translate(-229.03 -562.501)" fill="none" stroke="#fff" stroke-miterlimit="10" stroke-width="2.298"/>
        <rect id="Rectangle_1477" data-name="Rectangle 1477" width="3.039" height="26.695" transform="translate(257.277 324.811)" fill="#d1d0d0"/>
        <rect id="Rectangle_1478" data-name="Rectangle 1478" width="3.039" height="26.695" transform="translate(101.355 324.811)" fill="#d1d0d0"/>
        <rect id="Rectangle_1479" data-name="Rectangle 1479" width="3.039" height="26.696" transform="translate(257.277 356.655)" fill="#d1d0d0"/>
        <path id="Path_13977" data-name="Path 13977" d="M373.486,761.45A57.546,57.546,0,1,1,315.939,703.9a57.547,57.547,0,0,1,57.546,57.547" transform="translate(-132.25 -360.272)" fill="#edeeef"/>
        <path id="Path_13978" data-name="Path 13978" d="M373.725,766.606A52.628,52.628,0,1,1,321.1,713.978a52.629,52.629,0,0,1,52.629,52.628" transform="translate(-137.407 -365.429)" fill="#08994b"/>
        <path id="Path_13979" data-name="Path 13979" d="M305.681,773.172a2.993,2.993,0,0,1,2.973-2.972h55.781c.464-2.23.51-5.945,3.669-5.945h11.89a2.973,2.973,0,1,1,0,5.945h-9.475l-8.22,38.224c.651,1.347,2.833,4.923,2.833,6.363a2.993,2.993,0,0,1-2.972,2.972H314.6a2.973,2.973,0,0,1,0-5.945h42.729a7.037,7.037,0,0,1-1.114-2.972,19.076,19.076,0,0,1,.6-3.251l-48.49-5.667a3,3,0,0,1-2.647-2.972Zm47.56,50.532a5.945,5.945,0,1,1,5.945,5.945,5.927,5.927,0,0,1-5.945-5.945m-41.615,0a5.945,5.945,0,1,1,5.944,5.945,5.927,5.927,0,0,1-5.944-5.945" transform="translate(-156.453 -391.161)" fill="#fff"/>
        <path id="Path_13980" data-name="Path 13980" d="M374.509,771.852a3.889,3.889,0,0,1-1.175,2.852l-30.364,30.363-5.7,5.7a4.049,4.049,0,0,1-5.7,0l-5.7-5.7-15.182-15.182a4.05,4.05,0,0,1,0-5.7l5.7-5.7a4.049,4.049,0,0,1,5.7,0l12.33,12.372L361.928,763.3a4.047,4.047,0,0,1,5.7,0l5.7,5.7a3.89,3.89,0,0,1,1.175,2.852" transform="translate(-158.41 -390.069)" fill="#a4ce4c"/>
        <path id="Path_13981" data-name="Path 13981" d="M1126.519,1075.764l-.008.008-6.008-6.163,5.948-6.1-5.948-6.1,5.948-6.1-5.948-6.1,5.948-6.1-5.948-6.1,5.948-6.1-5.948-6.1,6.008-6.163.07.071h130.6v61.067H1126.519Z" transform="translate(-573.493 -519.311)" fill="#fff"/>
        <path id="Path_13982" data-name="Path 13982" d="M1162.749,1056.4a1.84,1.84,0,0,0,1.84-1.841v-23.194a1.841,1.841,0,1,0-3.681,0v23.194a1.841,1.841,0,0,0,1.841,1.841" transform="translate(-594.173 -526.929)" fill="#d1d1d2"/>
        <path id="Path_13983" data-name="Path 13983" d="M1176.7,1075.359a1.841,1.841,0,0,0,1.84-1.841v-42.155a1.841,1.841,0,1,0-3.681,0v42.155a1.841,1.841,0,0,0,1.841,1.841" transform="translate(-601.314 -526.929)" fill="#d1d1d2"/>
        <path id="Path_13984" data-name="Path 13984" d="M1190.653,1056.4a1.841,1.841,0,0,0,1.841-1.841v-23.194a1.841,1.841,0,1,0-3.681,0v23.194a1.84,1.84,0,0,0,1.84,1.841" transform="translate(-608.456 -526.929)" fill="#d1d1d2"/>
        <path id="Path_13985" data-name="Path 13985" d="M1190.653,1107.4a1.841,1.841,0,0,0,1.841-1.841v-11.6a1.841,1.841,0,1,0-3.681,0v11.6a1.841,1.841,0,0,0,1.84,1.841" transform="translate(-608.456 -558.967)" fill="#d1d1d2"/>
        <path id="Path_13986" data-name="Path 13986" d="M1204.606,1040.2a1.841,1.841,0,0,0,1.84-1.841v-6.995a1.84,1.84,0,1,0-3.681,0v6.995a1.841,1.841,0,0,0,1.841,1.841" transform="translate(-615.596 -526.929)" fill="#d1d1d2"/>
        <path id="Path_13987" data-name="Path 13987" d="M1204.606,1090.246a1.841,1.841,0,0,0,1.84-1.841v-26.876a1.84,1.84,0,1,0-3.681,0V1088.4a1.841,1.841,0,0,0,1.841,1.841" transform="translate(-615.596 -542.369)" fill="#d1d1d2"/>
        <path id="Path_13988" data-name="Path 13988" d="M1320.453,1088.595h35.127l3.938-73.811-39.065,12.745Z" transform="translate(-675.831 -519.386)" fill="#d1d1d2"/>
        <path id="Path_13989" data-name="Path 13989" d="M1451.114,1101.87l.008.008,6.008-6.163-5.948-6.1,5.948-6.1-5.948-6.1,5.948-6.1-5.948-6.1,5.948-6.1-5.948-6.1,5.948-6.1-6.008-6.163-.07.071h-130.6v61.067h130.661Z" transform="translate(-675.831 -532.673)" fill="#fff"/>
        <path id="Path_13990" data-name="Path 13990" d="M1554.317,1082.5a1.842,1.842,0,0,1-1.841-1.841v-23.194a1.841,1.841,0,1,1,3.682,0v23.194a1.84,1.84,0,0,1-1.841,1.841" transform="translate(-794.585 -540.291)" fill="#d1d1d2"/>
        <path id="Path_13991" data-name="Path 13991" d="M1540.366,1101.464a1.841,1.841,0,0,1-1.841-1.841v-42.155a1.841,1.841,0,1,1,3.682,0v42.155a1.841,1.841,0,0,1-1.841,1.841" transform="translate(-787.444 -540.29)" fill="#d1d1d2"/>
        <path id="Path_13992" data-name="Path 13992" d="M1526.414,1082.5a1.84,1.84,0,0,1-1.841-1.841v-23.194a1.841,1.841,0,1,1,3.681,0v23.194a1.84,1.84,0,0,1-1.84,1.841" transform="translate(-780.304 -540.291)" fill="#d1d1d2"/>
        <path id="Path_13993" data-name="Path 13993" d="M1526.414,1133.5a1.841,1.841,0,0,1-1.841-1.841v-11.6a1.841,1.841,0,1,1,3.681,0v11.6a1.841,1.841,0,0,1-1.84,1.841" transform="translate(-780.304 -572.328)" fill="#d1d1d2"/>
        <path id="Path_13994" data-name="Path 13994" d="M1512.463,1066.3a1.841,1.841,0,0,1-1.841-1.841v-6.995a1.841,1.841,0,1,1,3.682,0v6.995a1.841,1.841,0,0,1-1.841,1.841" transform="translate(-773.163 -540.291)" fill="#d1d1d2"/>
        <path id="Path_13995" data-name="Path 13995" d="M1512.463,1116.352a1.841,1.841,0,0,1-1.841-1.841v-26.876a1.841,1.841,0,0,1,3.682,0v26.876a1.841,1.841,0,0,1-1.841,1.841" transform="translate(-773.163 -555.731)" fill="#d1d1d2"/>
        <path id="Path_13996" data-name="Path 13996" d="M1260.8,1011.141v.012l-8.595.47-.68-8.493-8.509.465-.68-8.494-8.508.467-.681-8.494-8.508.466-.681-8.493-8.508.465-.689-8.579.1-.006,85.923-98.354,45.989,40.176-85.962,98.4Z" transform="translate(-621.738 -446.6)" fill="#fff"/>
        <path id="Path_13997" data-name="Path 13997" d="M1266.7,1076.867a1.84,1.84,0,0,0-.175-2.6l-17.468-15.26a1.841,1.841,0,1,0-2.422,2.773l17.467,15.259a1.84,1.84,0,0,0,2.6-.175" transform="translate(-637.729 -541.789)" fill="#d1d1d2"/>
        <path id="Path_13998" data-name="Path 13998" d="M1290.162,1078.835a1.841,1.841,0,0,0-.175-2.6l-31.748-27.734a1.84,1.84,0,1,0-2.421,2.772l31.747,27.734a1.841,1.841,0,0,0,2.6-.175" transform="translate(-642.427 -536.412)" fill="#d1d1d2"/>
        <path id="Path_13999" data-name="Path 13999" d="M1285.061,1055.853a1.842,1.842,0,0,0-.175-2.6L1267.419,1038a1.841,1.841,0,1,0-2.422,2.772l17.467,15.259a1.841,1.841,0,0,0,2.6-.174" transform="translate(-647.125 -531.034)" fill="#d1d1d2"/>
        <path id="Path_14000" data-name="Path 14000" d="M1323.468,1089.405a1.841,1.841,0,0,0-.175-2.6l-8.734-7.63a1.841,1.841,0,0,0-2.422,2.772l8.734,7.63a1.841,1.841,0,0,0,2.6-.175" transform="translate(-671.253 -552.112)" fill="#d1d1d2"/>
        <path id="Path_14001" data-name="Path 14001" d="M1282.041,1034.688a1.841,1.841,0,0,0-.175-2.6l-5.268-4.6a1.841,1.841,0,1,0-2.422,2.773l5.268,4.6a1.841,1.841,0,0,0,2.6-.175" transform="translate(-651.823 -525.656)" fill="#d1d1d2"/>
        <path id="Path_14002" data-name="Path 14002" d="M1319.731,1067.615a1.84,1.84,0,0,0-.176-2.6l-20.24-17.682a1.841,1.841,0,1,0-2.421,2.773l20.24,17.682a1.841,1.841,0,0,0,2.6-.176" transform="translate(-663.45 -535.814)" fill="#d1d1d2"/>
        <path id="Path_14003" data-name="Path 14003" d="M1403.974,950.553l23.111-26.455-53-51.526-16.1,37.8Z" transform="translate(-695.041 -446.6)" fill="#d1d1d2"/>
        <path id="Path_14004" data-name="Path 14004" d="M1489.928,788.067h.011l-.688-8.581-8.507.467-.682-8.494-8.508.466-.68-8.493-8.508.466-.682-8.494-8.507.466-.681-8.493-8.595.471.007.1L1357.985,846.3l45.989,40.176,85.963-98.4Z" transform="translate(-695.041 -382.522)" fill="#fff"/>
        <path id="Path_14005" data-name="Path 14005" d="M1543.979,799.152a1.841,1.841,0,0,1-2.6.175l-17.467-15.259a1.841,1.841,0,1,1,2.422-2.773l17.467,15.26a1.84,1.84,0,0,1,.175,2.6" transform="translate(-779.644 -399.65)" fill="#d1d1d2"/>
        <path id="Path_14006" data-name="Path 14006" d="M1549.079,822.134a1.84,1.84,0,0,1-2.6.175l-31.748-27.734a1.841,1.841,0,1,1,2.422-2.772l31.746,27.734a1.84,1.84,0,0,1,.175,2.6" transform="translate(-774.946 -405.028)" fill="#d1d1d2"/>
        <path id="Path_14007" data-name="Path 14007" d="M1525.622,820.167a1.841,1.841,0,0,1-2.6.175l-17.468-15.26a1.841,1.841,0,1,1,2.422-2.772l17.468,15.26a1.84,1.84,0,0,1,.176,2.6" transform="translate(-770.248 -410.405)" fill="#d1d1d2"/>
        <path id="Path_14008" data-name="Path 14008" d="M1564.028,853.719a1.841,1.841,0,0,1-2.6.175l-8.735-7.63a1.841,1.841,0,1,1,2.422-2.772l8.734,7.63a1.841,1.841,0,0,1,.175,2.6" transform="translate(-794.375 -431.483)" fill="#d1d1d2"/>
        <path id="Path_14009" data-name="Path 14009" d="M1504.243,820.016a1.842,1.842,0,0,1-2.6.175l-5.267-4.6a1.841,1.841,0,1,1,2.422-2.772l5.268,4.6a1.842,1.842,0,0,1,.175,2.6" transform="translate(-765.55 -415.783)" fill="#d1d1d2"/>
        <path id="Path_14010" data-name="Path 14010" d="M1541.933,852.944a1.841,1.841,0,0,1-2.6.175l-20.241-17.682a1.841,1.841,0,1,1,2.422-2.773l20.241,17.682a1.841,1.841,0,0,1,.174,2.6" transform="translate(-777.177 -425.942)" fill="#d1d1d2"/>
        <path id="Rectangle_1480" data-name="Rectangle 1480" d="M4.7,0h5.748a4.705,4.705,0,0,1,4.705,4.705V137.911a4.7,4.7,0,0,1-4.7,4.7H4.7a4.7,4.7,0,0,1-4.7-4.7V4.7A4.7,4.7,0,0,1,4.7,0Z" transform="translate(723.002 400.74)" fill="#393b54"/>
        <g id="Group_3366" data-name="Group 3366" transform="translate(721.26 400.456)" opacity="0.2" style="mix-blend-mode: multiply;isolation: isolate">
          <g id="Group_3365" data-name="Group 3365">
            <g id="Group_3364" data-name="Group 3364" clip-path="url(#clip-path-6)">
              <rect id="Rectangle_1481" data-name="Rectangle 1481" width="10.105" height="142.853" transform="translate(0 0)" fill="#1a1818"/>
            </g>
          </g>
        </g>
        <path id="Rectangle_1483" data-name="Rectangle 1483" d="M9.409,0h94.516a9.41,9.41,0,0,1,9.41,9.41V188.324a9.409,9.409,0,0,1-9.409,9.409H9.409A9.409,9.409,0,0,1,0,188.324V9.409A9.409,9.409,0,0,1,9.409,0Z" transform="translate(615.179 372.147)" fill="#393b54"/>
        <path id="Rectangle_1484" data-name="Rectangle 1484" d="M9.409,0H76.027a9.409,9.409,0,0,1,9.409,9.409V92.562a9.411,9.411,0,0,1-9.411,9.411H9.407A9.407,9.407,0,0,1,0,92.565V9.409A9.409,9.409,0,0,1,9.409,0Z" transform="translate(629.393 360.723)" fill="#232630"/>
        <path id="Rectangle_1485" data-name="Rectangle 1485" d="M4.7,0H79.125a4.7,4.7,0,0,1,4.7,4.7V86.931a4.706,4.706,0,0,1-4.706,4.706H4.705A4.705,4.705,0,0,1,0,86.932V4.7A4.7,4.7,0,0,1,4.7,0Z" transform="translate(630.313 470.045)" fill="#232630"/>
        <path id="Rectangle_1486" data-name="Rectangle 1486" d="M4.705,0H15.048a4.7,4.7,0,0,1,4.7,4.7V7.927a4.705,4.705,0,0,1-4.705,4.705H4.705A4.705,4.705,0,0,1,0,7.927V4.705A4.705,4.705,0,0,1,4.705,0Z" transform="translate(636.514 478.313)" fill="#c2bab0"/>
        <rect id="Rectangle_1487" data-name="Rectangle 1487" width="19.751" height="12.632" rx="4.705" transform="translate(662.466 478.313)" fill="#c2bab0"/>
        <path id="Rectangle_1488" data-name="Rectangle 1488" d="M4.7,0H15.046a4.7,4.7,0,0,1,4.7,4.7V7.927a4.705,4.705,0,0,1-4.705,4.705H4.705A4.705,4.705,0,0,1,0,7.927V4.7A4.7,4.7,0,0,1,4.7,0Z" transform="translate(688.418 478.313)" fill="#c2bab0"/>
        <path id="Rectangle_1489" data-name="Rectangle 1489" d="M4.705,0H15.048a4.7,4.7,0,0,1,4.7,4.7V7.929a4.7,4.7,0,0,1-4.7,4.7H4.705A4.705,4.705,0,0,1,0,7.927V4.705A4.705,4.705,0,0,1,4.705,0Z" transform="translate(636.514 493.701)" fill="#c2bab0"/>
        <rect id="Rectangle_1490" data-name="Rectangle 1490" width="19.751" height="12.632" rx="4.705" transform="translate(662.466 493.701)" fill="#c2bab0"/>
        <path id="Rectangle_1491" data-name="Rectangle 1491" d="M4.705,0H15.046a4.7,4.7,0,0,1,4.7,4.7V7.927a4.705,4.705,0,0,1-4.705,4.705H4.705A4.705,4.705,0,0,1,0,7.927V4.705A4.705,4.705,0,0,1,4.705,0Z" transform="translate(688.418 493.701)" fill="#c2bab0"/>
        <path id="Rectangle_1492" data-name="Rectangle 1492" d="M4.7,0H15.048a4.7,4.7,0,0,1,4.7,4.7V7.928a4.7,4.7,0,0,1-4.7,4.7H4.705A4.705,4.705,0,0,1,0,7.926V4.7A4.7,4.7,0,0,1,4.7,0Z" transform="translate(636.514 509.089)" fill="#c2bab0"/>
        <path id="Rectangle_1493" data-name="Rectangle 1493" d="M4.7,0H15.046a4.705,4.705,0,0,1,4.705,4.705V7.928a4.7,4.7,0,0,1-4.7,4.7H4.7A4.7,4.7,0,0,1,0,7.927V4.7A4.7,4.7,0,0,1,4.7,0Z" transform="translate(662.466 509.089)" fill="#c2bab0"/>
        <path id="Rectangle_1494" data-name="Rectangle 1494" d="M4.7,0H15.046a4.7,4.7,0,0,1,4.7,4.7V7.928a4.7,4.7,0,0,1-4.7,4.7H4.7A4.7,4.7,0,0,1,0,7.927V4.7A4.7,4.7,0,0,1,4.7,0Z" transform="translate(688.418 509.089)" fill="#c2bab0"/>
        <path id="Rectangle_1495" data-name="Rectangle 1495" d="M4.705,0H15.048a4.7,4.7,0,0,1,4.7,4.7V7.927a4.7,4.7,0,0,1-4.7,4.7H4.705A4.705,4.705,0,0,1,0,7.926V4.705A4.705,4.705,0,0,1,4.705,0Z" transform="translate(636.514 524.477)" fill="#c2bab0"/>
        <path id="Rectangle_1496" data-name="Rectangle 1496" d="M4.705,0H15.046a4.705,4.705,0,0,1,4.705,4.705V7.927a4.7,4.7,0,0,1-4.7,4.7H4.7A4.7,4.7,0,0,1,0,7.927V4.705A4.705,4.705,0,0,1,4.705,0Z" transform="translate(662.466 524.477)" fill="#c2bab0"/>
        <path id="Rectangle_1497" data-name="Rectangle 1497" d="M4.705,0H15.046a4.7,4.7,0,0,1,4.7,4.7V7.927a4.7,4.7,0,0,1-4.7,4.7H4.7A4.7,4.7,0,0,1,0,7.927V4.705A4.705,4.705,0,0,1,4.705,0Z" transform="translate(688.418 524.477)" fill="#c2bab0"/>
        <path id="Rectangle_1498" data-name="Rectangle 1498" d="M4.705,0H15.046a4.705,4.705,0,0,1,4.705,4.705V7.927a4.7,4.7,0,0,1-4.7,4.7H4.7A4.7,4.7,0,0,1,0,7.927V4.705A4.705,4.705,0,0,1,4.705,0Z" transform="translate(636.514 539.864)" fill="#e54c39"/>
        <path id="Rectangle_1499" data-name="Rectangle 1499" d="M4.7,0H15.046a4.705,4.705,0,0,1,4.705,4.705V7.927a4.7,4.7,0,0,1-4.7,4.7H4.7A4.7,4.7,0,0,1,0,7.927V4.7A4.7,4.7,0,0,1,4.7,0Z" transform="translate(662.466 539.864)" fill="#f9dc16"/>
        <path id="Rectangle_1500" data-name="Rectangle 1500" d="M4.705,0H15.046a4.7,4.7,0,0,1,4.7,4.7V7.927a4.7,4.7,0,0,1-4.7,4.7H4.7A4.7,4.7,0,0,1,0,7.927V4.705A4.705,4.705,0,0,1,4.705,0Z" transform="translate(688.418 539.864)" fill="#60ae32"/>
        <path id="Rectangle_1501" data-name="Rectangle 1501" d="M2.756,0h60.86a2.756,2.756,0,0,1,2.756,2.756v0a2.756,2.756,0,0,1-2.756,2.756H2.755A2.755,2.755,0,0,1,0,2.757v0A2.756,2.756,0,0,1,2.756,0Z" transform="translate(639.04 376.341)" fill="#101319"/>
        <rect id="Rectangle_1502" data-name="Rectangle 1502" width="68.21" height="58.105" transform="translate(638.121 390.81)" fill="#16a3b2"/>
        <path id="Path_14011" data-name="Path 14011" d="M1350.077,824.013a2.3,2.3,0,0,1-2.3,2.3h-28.937a2.3,2.3,0,1,1,0-4.593h28.937a2.3,2.3,0,0,1,2.3,2.3" transform="translate(-673.831 -420.571)" fill="#42bdd7"/>
        <path id="Path_14012" data-name="Path 14012" d="M1373.732,841.419a2.3,2.3,0,0,1-2.3,2.3h-52.594a2.3,2.3,0,1,1,0-4.593h52.594a2.3,2.3,0,0,1,2.3,2.3" transform="translate(-673.831 -429.48)" fill="#42bdd7"/>
        <path id="Path_14013" data-name="Path 14013" d="M1350.077,858.826a2.3,2.3,0,0,1-2.3,2.3h-28.937a2.3,2.3,0,1,1,0-4.593h28.937a2.3,2.3,0,0,1,2.3,2.3" transform="translate(-673.831 -438.389)" fill="#42bdd7"/>
        <path id="Path_14014" data-name="Path 14014" d="M1413.7,858.826a2.3,2.3,0,0,1-2.3,2.3h-14.469a2.3,2.3,0,1,1,0-4.593h14.469a2.3,2.3,0,0,1,2.3,2.3" transform="translate(-713.802 -438.389)" fill="#42bdd7"/>
        <path id="Path_14015" data-name="Path 14015" d="M1329.867,876.232a2.3,2.3,0,0,1-2.3,2.3h-8.727a2.3,2.3,0,1,1,0-4.593h8.727a2.3,2.3,0,0,1,2.3,2.3" transform="translate(-673.831 -447.298)" fill="#42bdd7"/>
        <path id="Path_14016" data-name="Path 14016" d="M1392.305,876.232a2.3,2.3,0,0,1-2.3,2.3h-33.532a2.3,2.3,0,1,1,0-4.593h33.532a2.3,2.3,0,0,1,2.3,2.3" transform="translate(-693.094 -447.298)" fill="#42bdd7"/>
        <path id="Path_14017" data-name="Path 14017" d="M1376.117,662.5l.008-.008-6.163-6.009-6.1,5.948-6.1-5.948-6.1,5.948-6.1-5.948-6.1,5.948-6.1-5.948-6.1,5.948-6.1-5.948-6.163,6.009.072.069v53h61.066V662.5Z" transform="translate(-673.036 -336.002)" fill="#fff"/>
        <path id="Path_14018" data-name="Path 14018" d="M1356.751,698.729a1.841,1.841,0,0,1-1.841,1.841h-23.194a1.841,1.841,0,0,1,0-3.682h23.194a1.841,1.841,0,0,1,1.841,1.841" transform="translate(-680.654 -356.682)" fill="#d1d1d2"/>
        <path id="Path_14019" data-name="Path 14019" d="M1375.713,712.681a1.842,1.842,0,0,1-1.841,1.841h-42.155a1.841,1.841,0,0,1,0-3.682h42.155a1.841,1.841,0,0,1,1.841,1.841" transform="translate(-680.654 -363.822)" fill="#d1d1d2"/>
        <path id="Path_14020" data-name="Path 14020" d="M1356.751,726.634a1.841,1.841,0,0,1-1.841,1.841h-23.194a1.841,1.841,0,1,1,0-3.682h23.194a1.841,1.841,0,0,1,1.841,1.841" transform="translate(-680.654 -370.964)" fill="#d1d1d2"/>
        <path id="Path_14021" data-name="Path 14021" d="M1407.75,726.634a1.841,1.841,0,0,1-1.841,1.841h-11.6a1.841,1.841,0,1,1,0-3.682h11.6a1.841,1.841,0,0,1,1.841,1.841" transform="translate(-712.691 -370.964)" fill="#d1d1d2"/>
        <path id="Path_14022" data-name="Path 14022" d="M1340.552,740.586a1.841,1.841,0,0,1-1.841,1.84h-7a1.841,1.841,0,1,1,0-3.681h7a1.841,1.841,0,0,1,1.841,1.841" transform="translate(-680.654 -378.105)" fill="#d1d1d2"/>
        <path id="Path_14023" data-name="Path 14023" d="M1390.6,740.586a1.841,1.841,0,0,1-1.842,1.84h-26.876a1.841,1.841,0,0,1,0-3.681h26.876a1.841,1.841,0,0,1,1.842,1.841" transform="translate(-696.094 -378.105)" fill="#d1d1d2"/>
        <g id="Group_3384" data-name="Group 3384" transform="matrix(0.799, -0.602, 0.602, 0.799, 267.642, 324.651)">
          <path id="Path_13955-2" data-name="Path 13955" d="M131.082,178.876,2.592,82.4a6.487,6.487,0,0,1-1.3-9.078L54.408,2.59A6.483,6.483,0,0,1,63.484,1.3L191.975,97.77a6.478,6.478,0,0,1,1.292,9.076l-53.107,70.736a6.488,6.488,0,0,1-9.079,1.294" transform="translate(73.374 0)" fill="#8d8379"/>
          <rect id="Rectangle_1457-2" data-name="Rectangle 1457" width="26.892" height="173.644" transform="matrix(0.6, -0.8, 0.8, 0.6, 106.533, 30.892)" fill="#4f4943"/>
          <path id="Path_13956-2" data-name="Path 13956" d="M131.083,178.875,2.593,82.405A6.482,6.482,0,0,1,1.3,73.327L54.411,2.59A6.48,6.48,0,0,1,63.485,1.3L191.977,97.77a6.484,6.484,0,0,1,1.293,9.076l-53.111,70.738a6.483,6.483,0,0,1-9.076,1.292" transform="translate(0 13.271)" fill="#c2bab0"/>
          <path id="Path_13957-2" data-name="Path 13957" d="M24.2,21.52A13.446,13.446,0,1,1,21.52,2.693,13.446,13.446,0,0,1,24.2,21.52" transform="translate(122.403 91.006)" fill="#8fc159"/>
          <path id="Path_13958-2" data-name="Path 13958" d="M24.2,21.521A13.445,13.445,0,1,1,21.522,2.693,13.443,13.443,0,0,1,24.2,21.521" transform="translate(137.151 102.077)" fill="#6257a1"/>
          <rect id="Rectangle_1458-2" data-name="Rectangle 1458" width="26.892" height="47.124" transform="translate(46.059 53.853) rotate(-53.103)" fill="#fff"/>
          <rect id="Rectangle_1459-2" data-name="Rectangle 1459" width="6.979" height="30.17" transform="translate(27.737 78.255) rotate(-53.103)" fill="#fff"/>
          <rect id="Rectangle_1460-2" data-name="Rectangle 1460" width="6.977" height="30.169" transform="translate(57.096 100.295) rotate(-53.101)" fill="#fff"/>
          <rect id="Rectangle_1461-2" data-name="Rectangle 1461" width="6.975" height="30.169" transform="matrix(0.6, -0.8, 0.8, 0.6, 18.339, 90.777)" fill="#fff"/>
          <rect id="Rectangle_1462-2" data-name="Rectangle 1462" width="6.976" height="30.171" transform="matrix(0.6, -0.8, 0.8, 0.6, 47.695, 112.814)" fill="#fff"/>
          <rect id="Rectangle_1463-2" data-name="Rectangle 1463" width="6.976" height="30.171" transform="matrix(0.6, -0.8, 0.8, 0.6, 86.449, 122.333)" fill="#fff"/>
        </g>
      </g>
    </g>
  </g>
</svg>
