<svg xmlns="http://www.w3.org/2000/svg" xmlns:xlink="http://www.w3.org/1999/xlink" width="128" height="41.335" viewBox="0 0 128 41.335">
  <defs>
    <clipPath id="clip-path">
      <path id="Path_14033" data-name="Path 14033" d="M37.737.73,26.971,27.943,22.616,4.8A4.821,4.821,0,0,0,17.846.73H.246L0,1.891a43.046,43.046,0,0,1,10.2,3.4c1.523.827,1.957,1.549,2.457,3.513l8.248,31.906H31.841L48.6.73Zm15.3,0L44.482,40.711H54.826L63.378.73Zm59.3,10.8,3.133,15.014h-8.579ZM110.82.73a4.713,4.713,0,0,0-4.4,2.933L90.9,40.711h10.855l2.16-5.968h13.264l1.253,5.968H128L119.652.73ZM83.672,0C73.448,0,66.256,5.435,66.2,13.214c-.073,5.758,5.132,8.971,9.052,10.882,4.028,1.96,5.381,3.217,5.365,4.969-.031,2.683-3.214,3.867-6.192,3.913A21.605,21.605,0,0,1,63.8,30.452l-1.872,8.76a31.143,31.143,0,0,0,11.5,2.121c10.862,0,17.969-5.361,18.007-13.675.043-10.551-14.594-11.135-14.494-15.851.034-1.43,1.4-2.956,4.389-3.344a19.469,19.469,0,0,1,10.2,1.787L93.35,1.775A27.724,27.724,0,0,0,83.672,0Z" transform="translate(0 0.001)" fill="none"/>
    </clipPath>
    <linearGradient id="linear-gradient" x1="0.074" y1="0.926" x2="0.077" y2="0.926" gradientUnits="objectBoundingBox">
      <stop offset="0" stop-color="#222357"/>
      <stop offset="1" stop-color="#254aa5"/>
    </linearGradient>
  </defs>
  <g id="visa_icon" transform="translate(0 0.001)">
    <g id="Group_3378" data-name="Group 3378" transform="translate(0 -0.001)" clip-path="url(#clip-path)">
      <path id="Path_14032" data-name="Path 14032" d="M-22.174,37.441l12.055-44.6L128-3.268l-12.055,44.6Z" transform="translate(11.087 3.581)" fill="url(#linear-gradient)"/>
    </g>
  </g>
</svg>
